<?xml version="1.0" encoding="UTF-8" standalone="no"?>
<!-- Created with Inkscape (http://www.inkscape.org/) -->

<svg
   width="50mm"
   height="50mm"
   viewBox="0 0 50 50"
   version="1.1"
   id="svg5"
   inkscape:version="1.2.1 (9c6d41e4, 2022-07-14)"
   sodipodi:docname="brain.svg"
   xml:space="preserve"
   inkscape:export-filename="brain.png"
   inkscape:export-xdpi="96"
   inkscape:export-ydpi="96"
   xmlns:inkscape="http://www.inkscape.org/namespaces/inkscape"
   xmlns:sodipodi="http://sodipodi.sourceforge.net/DTD/sodipodi-0.dtd"
   xmlns="http://www.w3.org/2000/svg"
   xmlns:svg="http://www.w3.org/2000/svg"><sodipodi:namedview
     id="namedview7"
     pagecolor="#ffffff"
     bordercolor="#000000"
     borderopacity="0.25"
     inkscape:showpageshadow="2"
     inkscape:pageopacity="0.0"
     inkscape:pagecheckerboard="0"
     inkscape:deskcolor="#d1d1d1"
     inkscape:document-units="mm"
     showgrid="false"
     inkscape:zoom="2.572582"
     inkscape:cx="91.542273"
     inkscape:cy="86.877699"
     inkscape:window-width="1309"
     inkscape:window-height="717"
     inkscape:window-x="265"
     inkscape:window-y="147"
     inkscape:window-maximized="0"
     inkscape:current-layer="layer1" /><defs
     id="defs2" /><g
     inkscape:label="Layer 1"
     inkscape:groupmode="layer"
     id="layer1"><path
       style="fill:#ffffff;stroke-width:0.742;stroke-linecap:square"
       d="m 8.9477227,16.719334 c -7.3782294,2.945557 -8.63497223,13.330469 -3.8937048,17.58775 4.8677392,3.006149 9.4476821,5.439711 13.1630261,0.361086 1.48223,-2.07529 1.167387,-4.261746 -0.01306,-8.075488 -2.01462,-5.613894 -0.250702,-9.490879 4.833828,-12.033143 l 0.925626,1.748405 c -7.142165,2.505206 -4.620102,6.440241 -2.879727,12.444534 0.03215,5.072335 -0.519548,6.381849 -3.908201,9.770502 8.923396,-0.878119 11.906739,0.234395 18.615378,6.067996 3.473805,0.517505 1.981991,-1.798966 2.571184,-5.039524 l -2.159794,-0.102846 c -2.239357,-1.364087 -3.970093,-3.086715 -5.656607,-5.039521 l 1.542712,-1.028475 c 2.246971,3.026876 5.04012,4.320413 8.023545,4.305764 4.900105,-0.39705 7.867024,-1.846213 8.610085,-6.749087 0.256518,-1.825862 -0.07732,-3.698899 -0.897981,-5.887316 -3.084691,7.121942 -10.314809,1.895062 -14.501482,-0.617083 -2.681457,-1.792743 -4.011049,-0.246399 -4.011049,2.571184 l 0.205695,1.542711 -2.262642,-0.102848 c -0.03227,-5.369675 1.041597,-7.123511 6.376537,-6.170842 3.795858,1.298698 9.082765,6.8498 12.444535,2.571184 C 49.032001,14.953138 36.845116,8.115352 30.134281,7.4630699 l 1.645558,1.234169 c 1.260023,2.5168111 1.03182,3.2156181 3.188269,5.2452151 1.574134,0.682899 2.887441,0.686642 4.525285,0.514237 l 0.514236,1.542711 -1.028472,0.205695 c -1.573667,0.109491 -3.003437,0.09728 -4.525285,-0.308542 l -1.645558,-1.234169 c -0.711227,1.589435 -1.718931,2.051533 -2.982574,3.085422 L 29.00296,16.205097 C 30.562243,15.48984 30.886158,14.72717 31.471298,13.222523 31.566398,9.9239173 28.722782,8.3543012 26.328928,7.2573751 14.5266,7.9616167 8.217709,16.714343 12.135992,26.181292 7.4897943,28.775194 8.5863698,19.143006 8.9477227,16.719334 Z"
       id="path587"
       sodipodi:nodetypes="cccccccccccccccccccccccccccccccccccc" /></g></svg>
