<?xml version="1.0" encoding="UTF-8" standalone="no"?>
<!-- Created with Inkscape (http://www.inkscape.org/) -->

<svg
   width="50mm"
   height="50mm"
   viewBox="0 0 50 50"
   version="1.1"
   id="svg5"
   inkscape:version="1.2.1 (9c6d41e4, 2022-07-14)"
   sodipodi:docname="bulb.svg"
   xml:space="preserve"
   inkscape:export-filename="strategies.png"
   inkscape:export-xdpi="96"
   inkscape:export-ydpi="96"
   xmlns:inkscape="http://www.inkscape.org/namespaces/inkscape"
   xmlns:sodipodi="http://sodipodi.sourceforge.net/DTD/sodipodi-0.dtd"
   xmlns="http://www.w3.org/2000/svg"
   xmlns:svg="http://www.w3.org/2000/svg"><sodipodi:namedview
     id="namedview7"
     pagecolor="#ffffff"
     bordercolor="#000000"
     borderopacity="0.25"
     inkscape:showpageshadow="2"
     inkscape:pageopacity="0.0"
     inkscape:pagecheckerboard="0"
     inkscape:deskcolor="#d1d1d1"
     inkscape:document-units="mm"
     showgrid="false"
     inkscape:zoom="1.6681883"
     inkscape:cx="107.00231"
     inkscape:cy="120.19027"
     inkscape:window-width="1309"
     inkscape:window-height="717"
     inkscape:window-x="265"
     inkscape:window-y="175"
     inkscape:window-maximized="0"
     inkscape:current-layer="layer1" /><defs
     id="defs2" /><g
     inkscape:label="Layer 1"
     inkscape:groupmode="layer"
     id="layer1"><g
       id="g5959"
       style="fill:#ffffff"
       transform="matrix(1.0645566,0,0,1.0645566,-0.98551621,-2.8108058)"><path
         id="path5787"
         style="fill:#ffffff;stroke-width:0.762558;stroke-linecap:square"
         d="M 25.093042,4.2307495 A 13.713747,13.276074 0 0 0 11.379667,17.506942 13.713747,13.276074 0 0 0 14.686959,26.13949 c 2.380327,3.223483 5.069849,6.524497 5.059639,9.150346 -1.013583,1.049716 -2.001763,2.933189 0.209807,3.013252 h 10.206612 c 0.775357,0 1.399398,-0.62404 1.399398,-1.399397 l -1.189592,-1.693437 c 0.38531,-3.07616 2.60564,-5.693609 4.486548,-8.39587 A 13.713747,13.276074 0 0 0 38.806934,17.506942 13.713747,13.276074 0 0 0 25.093042,4.2307495 Z" /><rect
         style="opacity:1;fill:#ffffff;stroke-width:0.742;stroke-linecap:square"
         id="rect5949"
         width="13.164231"
         height="2.3790779"
         x="18.398203"
         y="39.492695"
         ry="1.189539" /><path
         id="rect5951"
         style="opacity:1;fill:#ffffff;stroke-width:0.742;stroke-linecap:square"
         d="m 19.587952,43.196847 c -0.659004,0 -1.189592,0.530587 -1.189592,1.189591 0,0.659004 0.530588,1.189591 1.189592,1.189591 h 1.740979 c -0.04891,0.130422 -0.07597,0.271702 -0.07597,0.419613 v 1.268657 c 0,0.659003 0.530588,1.189591 1.189592,1.189591 h 5.154724 c 0.659004,0 1.189591,-0.530588 1.189591,-1.189591 v -1.268657 c 0,-0.147856 -0.02658,-0.289232 -0.07545,-0.419613 h 1.661397 c 0.659004,0 1.189592,-0.530587 1.189592,-1.189591 0,-0.659004 -0.530588,-1.189591 -1.189592,-1.189591 z" /></g></g></svg>
