<?xml version="1.0" encoding="UTF-8" standalone="no"?>
<!-- Created with Inkscape (http://www.inkscape.org/) -->

<svg
   width="210mm"
   height="297mm"
   viewBox="0 0 210 297"
   version="1.1"
   id="svg5"
   inkscape:version="1.2.1 (9c6d41e4, 2022-07-14)"
   sodipodi:docname="doc2.svg"
   xml:space="preserve"
   xmlns:inkscape="http://www.inkscape.org/namespaces/inkscape"
   xmlns:sodipodi="http://sodipodi.sourceforge.net/DTD/sodipodi-0.dtd"
   xmlns="http://www.w3.org/2000/svg"
   xmlns:svg="http://www.w3.org/2000/svg"><sodipodi:namedview
     id="namedview7"
     pagecolor="#ffffff"
     bordercolor="#000000"
     borderopacity="0.25"
     inkscape:showpageshadow="2"
     inkscape:pageopacity="0.0"
     inkscape:pagecheckerboard="0"
     inkscape:deskcolor="#d1d1d1"
     inkscape:document-units="mm"
     showgrid="false"
     inkscape:zoom="1.5274151"
     inkscape:cx="1453.7633"
     inkscape:cy="610.50855"
     inkscape:window-width="1631"
     inkscape:window-height="861"
     inkscape:window-x="43"
     inkscape:window-y="425"
     inkscape:window-maximized="0"
     inkscape:current-layer="svg5"
     showguides="true"><sodipodi:guide
       position="104.81391,241.51029"
       orientation="0,-1"
       id="guide13859"
       inkscape:locked="false" /><inkscape:page
       x="0"
       y="0"
       width="210"
       height="297"
       id="page29058" /><inkscape:page
       x="220"
       y="0"
       width="1015.3685"
       height="634.48145"
       id="page29060" /></sodipodi:namedview><defs
     id="defs2" /><g
     inkscape:label="Layer 1"
     inkscape:groupmode="layer"
     id="layer1" /><circle
     style="fill:#fff4af;fill-opacity:1;stroke:#000000;stroke-width:0.641847;stroke-linecap:square;stroke-dasharray:none"
     id="circle43465"
     cx="317.98535"
     cy="148.67117"
     r="23.945591" /><path
     id="path43467"
     style="fill:#fff9d0;fill-opacity:1;stroke:none;stroke-width:0.641847;stroke-linecap:square;stroke-dasharray:none"
     d="m 317.98539,124.72547 a 23.945591,23.945591 0 0 0 -22.5989,16.07883 24.03827,12.065475 0 0 0 22.5989,7.95954 24.03827,12.065475 0 0 0 22.61108,-7.97477 23.945591,23.945591 0 0 0 -22.61108,-16.0636 z" /><path
     d="m 310.19046,167.98058 c 0.22247,-0.2827 2.52735,-6.35698 2.78226,-7.60831 0.41709,-2.05462 -0.93,-1.79973 -1.86771,-1.57881 -0.79559,0.18846 -1.09684,1.04585 -1.1818,1.13236 -0.69208,0.71371 -2.07471,5.64945 -2.07625,5.70662 0,0 0.12822,0.15911 0.32595,0.39393 0.60249,0.72298 1.85072,2.16741 2.01755,1.95421"
     style="fill:#d7d6d7;fill-opacity:1;fill-rule:nonzero;stroke:none;stroke-width:0.0154484"
     id="path43469" /><path
     d="m 309.96802,169.91626 c 0,0 -2.58606,-0.0973 -2.26473,-3.76167 0,0 0.3553,-1.21424 0.52987,-1.90015 l 2.36823,0.85584 -0.63337,4.80598"
     style="fill:#d7d6d7;fill-opacity:1;fill-rule:nonzero;stroke:none;stroke-width:0.0154484"
     id="path43471" /><path
     d="m 324.026,167.70406 c -0.22091,-0.28271 -2.52581,-6.35853 -2.78069,-7.60985 -0.41712,-2.05309 0.92998,-1.79974 1.86769,-1.57728 0.79559,0.18847 1.09683,1.04586 1.18179,1.13237 0.6921,0.71217 2.07317,5.64945 2.07627,5.70507 0,0 -0.12822,0.15911 -0.32597,0.39547 -0.60403,0.72299 -1.85071,2.1674 -2.01909,1.95422"
     style="fill:#d7d6d7;fill-opacity:1;fill-rule:nonzero;stroke:none;stroke-width:0.0154484"
     id="path43473" /><path
     d="m 325.12901,171.61867 -1.49694,-11.94003 c -0.004,-0.0232 -0.007,-0.0479 -0.0139,-0.0711 -0.18537,-0.71989 -0.65037,-1.30539 -1.26366,-1.58963 l -1.58655,-0.73534 c -0.0417,-0.0185 -0.0818,-0.0448 -0.11737,-0.0757 l -0.689,-0.60402 c -0.0726,-0.0618 -0.16066,-0.10347 -0.2549,-0.1158 -0.80177,-0.11277 -4.65304,-0.64883 -4.79361,-0.57622 -0.10045,0.051 -0.98097,0.98404 -1.60971,1.65605 -0.0927,0.10044 -0.22247,0.16376 -0.35995,0.15449 -0.11894,-0.01 -0.24564,0.017 -0.36459,0.085 l -2.05926,1.18644 c -0.18538,0.10661 -0.30588,0.2997 -0.31978,0.51288 l 0.13749,11.97867 c -0.0185,0.27345 6.68759,1.3102 7.28389,1.31793 0.62102,0.01 5.33006,-0.69727 6.88415,-0.94291 0.29325,-0.59289 0.65618,0.0235 0.62375,-0.24065"
     style="fill:#e9e7e5;fill-opacity:1;fill-rule:nonzero;stroke:none;stroke-width:0.0154484"
     id="path43475"
     sodipodi:nodetypes="cccscccccccccccccc" /><path
     d="m 318.57892,146.9245 c -0.0633,-0.81104 -0.78941,-1.4506 -1.67769,-1.4506 -0.88828,0 -1.6159,0.63956 -1.67769,1.4506 l -0.69981,9.01255 c -0.017,0.10661 -0.0247,0.2132 -0.0247,0.32288 0,1.23277 1.07519,1.10919 2.40222,1.10919 1.32701,0 2.40221,0.12358 2.40221,-1.10919 0,-0.10963 -0.01,-0.21628 -0.0247,-0.32288 l -0.6998,-9.01255"
     style="fill:#d8a08e;fill-opacity:1;fill-rule:evenodd;stroke:none;stroke-width:0.0154484"
     id="path43477" /><path
     d="m 314.47893,156.46694 c 1.7194,0.004 3.13447,0.0417 4.82451,-0.46191 l -0.68436,-9.3308 c -0.0649,-0.87129 -0.80486,-1.56027 -1.70705,-1.56027 -0.90526,0 -1.64524,0.68898 -1.70858,1.56027 l -0.71217,9.69538 c -0.005,0.0324 -0.007,0.0649 -0.0123,0.0973"
     style="fill:#c77165;fill-opacity:1;fill-rule:evenodd;stroke:none;stroke-width:0.0154484"
     id="path43479" /><path
     d="m 318.04286,157.42318 -0.35995,1.09529 c -0.0155,0.0479 -0.0355,0.0911 -0.0619,0.12977 0.0232,0.0834 0.0448,0.16994 0.0619,0.2518 0.0185,0.0957 0.0619,0.1823 0.12668,0.24718 0.15757,0.16221 0.39703,0.16375 0.55923,0.005 l 0.65655,-0.64883 -0.98251,-1.07984"
     style="fill:#cfd0d1;fill-opacity:1;fill-rule:nonzero;stroke:none;stroke-width:0.0154484"
     id="path43481" /><path
     d="m 316.23695,157.30888 0.79095,0.0216 0.24408,0.007 0.71063,0.0185 -0.0772,-0.085 -2.39913,0.0185 -0.97325,0.53914 1.38418,1.23278 c 0.15449,0.13904 0.37539,0.1344 0.52833,-0.01 l 0.006,-0.005 c 0.0726,-0.0695 0.12358,-0.16375 0.14367,-0.26881 0.007,-0.0401 0.017,-0.085 0.0278,-0.13439 -0.0294,-0.0464 -0.054,-0.0989 -0.0695,-0.15603 l -0.31669,-1.18026"
     style="fill:#cfd0d1;fill-opacity:1;fill-rule:nonzero;stroke:none;stroke-width:0.0154484"
     id="path43483" /><path
     d="m 317.24726,157.3305 c -0.59011,0.36149 -0.7446,0.72299 -0.8373,1.28685 -0.0401,0.25026 -0.2518,0.41556 -0.47272,0.37075 -0.0633,-0.0123 -0.12358,-0.0417 -0.17611,-0.0865 l -2.1334,-1.86153 c 0.0123,-0.44491 0.74769,-1.00723 0.74769,-1.00723 l 2.87184,1.29766"
     style="fill:#dcdcdb;fill-opacity:1;fill-rule:nonzero;stroke:none;stroke-width:0.0154484"
     id="path43485" /><path
     d="m 317.02326,157.32432 c 0.5716,0.39238 0.70599,0.7616 0.7678,1.3301 0.0262,0.2518 0.22863,0.42947 0.45108,0.39702 0.0649,-0.01 0.12668,-0.0371 0.18075,-0.0788 l 2.23228,-1.74258 c 0.0109,-0.4449 -0.93308,-1.02731 -0.93308,-1.02731 l -2.69883,1.12156"
     style="fill:#dcdcdb;fill-opacity:1;fill-rule:nonzero;stroke:none;stroke-width:0.0154484"
     id="path43487" /><path
     d="m 325.26958,171.77469 -1.63751,-12.09605 c -0.004,-0.0232 -0.007,-0.0479 -0.0139,-0.0711 -0.18537,-0.71989 -0.65037,-1.30539 -1.26366,-1.58963 l -1.28377,-0.59477 c -0.0433,-0.0201 -3.90533,7.93891 -4.04746,8.00997 -0.10044,0.051 -3.73541,-8.0007 -3.87134,-8.00997 -0.11894,-0.01 -0.45419,0.31515 -0.57314,0.38312 l -2.05926,1.18644 c -0.18539,0.10661 -0.30588,0.2997 -0.31979,0.51289 l -0.0834,11.72971 c -0.0201,0.27344 7.05344,1.35345 7.64975,1.36117 0.62102,0.01 5.35631,-0.61268 6.91042,-0.8583 0.29324,-0.80725 0.6271,0.2991 0.59311,0.0365"
     style="fill:#4356d9;fill-opacity:1;fill-rule:nonzero;stroke:none;stroke-width:0.0154484"
     id="path43491"
     sodipodi:nodetypes="cccccccccccccc" /><path
     d="m 328.84741,144.02022 c 1.2297,0.1313 2.12107,1.23586 1.98976,2.46554 -0.13131,1.22969 -1.23431,2.12107 -2.46401,1.98975 -1.23122,-0.13132 -2.12105,-1.23432 -1.98974,-2.464 0.12976,-1.23124 1.23277,-2.12106 2.46399,-1.99129"
     style="fill:#c77165;fill-opacity:1;fill-rule:evenodd;stroke:none;stroke-width:0.0154484"
     id="path43493" /><path
     d="m 306.76402,141.67052 c 1.2297,0.12976 2.12106,1.23278 1.98975,2.464 -0.13131,1.2297 -1.23432,2.12107 -2.46401,1.98975 -1.22968,-0.1313 -2.1226,-1.23432 -1.99129,-2.464 0.13131,-1.23124 1.23433,-2.12106 2.46555,-1.98975"
     style="fill:#c77165;fill-opacity:1;fill-rule:evenodd;stroke:none;stroke-width:0.0154484"
     id="path43495" /><path
     d="m 318.16336,129.18826 1.85843,0.19774 c 5.47644,0.5824 9.48065,5.54132 8.8967,11.01775 l -0.68437,6.43269 c -0.58394,5.47644 -5.54131,9.48064 -11.01929,8.89669 l -1.85689,-0.19774 c -5.47644,-0.58238 -9.48065,-5.54131 -8.89671,-11.01774 l 0.68437,-6.4327 c 0.5824,-5.47642 5.54132,-9.48063 11.01776,-8.89669"
     style="fill:#d8a08e;fill-opacity:1;fill-rule:evenodd;stroke:none;stroke-width:0.0154484"
     id="path43497" /><path
     d="m 323.71239,145.37195 c -1.10764,-0.11737 -2.10097,0.6859 -2.21992,1.79354 -0.11737,1.10764 0.68437,2.10097 1.79354,2.21993 1.10766,0.11736 2.10099,-0.68436 2.21839,-1.79356 0.11894,-1.10764 -0.68435,-2.10096 -1.79201,-2.21991"
     style="fill:#c3797d;fill-opacity:1;fill-rule:evenodd;stroke:none;stroke-width:0.0154484"
     id="path43499" /><path
     d="m 310.95053,145.1433 c -1.10765,-0.11736 -2.10097,0.68436 -2.21993,1.79201 -0.11737,1.10919 0.6859,2.10252 1.79355,2.21993 1.10764,0.11737 2.10098,-0.68436 2.21993,-1.79201 0.11736,-1.10764 -0.68591,-2.10252 -1.79355,-2.21993"
     style="fill:#c3797d;fill-opacity:1;fill-rule:evenodd;stroke:none;stroke-width:0.0154484"
     id="path43501" /><path
     d="m 318.62218,148.18972 c 0.0927,-0.0695 0.22708,-0.051 0.29659,0.0433 0.0711,0.0943 0.051,0.2271 -0.0417,0.29661 -0.22709,0.16992 -0.52369,0.30588 -0.86047,0.39394 -0.31979,0.0834 -0.67819,0.12667 -1.05512,0.11579 -0.37694,-0.0109 -0.73226,-0.0726 -1.0474,-0.17301 -0.33059,-0.10661 -0.61793,-0.25799 -0.83576,-0.44028 -0.0911,-0.0742 -0.10189,-0.20856 -0.0278,-0.29816 0.0757,-0.0896 0.2101,-0.10202 0.29971,-0.0262 0.17609,0.14675 0.41401,0.27034 0.69517,0.36148 0.27497,0.0881 0.59012,0.14213 0.92844,0.1514 0.33677,0.01 0.65502,-0.0278 0.93617,-0.10202 0.28425,-0.0742 0.52833,-0.18538 0.71217,-0.32288"
     style="fill:#be6372;fill-opacity:1;fill-rule:evenodd;stroke:none;stroke-width:0.0154484"
     id="path43503" /><path
     d="m 317.53769,149.49664 c 0.1158,-0.0169 0.22401,0.0649 0.23945,0.18074 0.0169,0.11592 -0.0648,0.22401 -0.18074,0.23946 -0.10504,0.0155 -0.21319,0.0262 -0.32595,0.0324 -0.11121,0.006 -0.22247,0.007 -0.3337,0.005 -0.10818,-0.004 -0.21936,-0.0109 -0.33213,-0.0232 v 0 c -0.10963,-0.0123 -0.21936,-0.0294 -0.32441,-0.0494 -0.11435,-0.0216 -0.19003,-0.1344 -0.16686,-0.24871 0.0232,-0.11434 0.13442,-0.19001 0.24872,-0.16684 0.0911,0.0169 0.18693,0.0324 0.28426,0.0433 h 0.005 v 0 c 0.0927,0.0109 0.19155,0.0169 0.29815,0.0201 0.1019,0.004 0.20237,0.002 0.29815,-0.004 0.0973,-0.006 0.19465,-0.0155 0.29043,-0.0294"
     style="fill:#be6372;fill-opacity:1;fill-rule:evenodd;stroke:none;stroke-width:0.0154484"
     id="path43505" /><path
     d="m 312.8553,139.94957 c 0.1653,-0.054 0.34141,-0.0973 0.51289,-0.0665 0.17148,0.0309 0.33678,0.15294 0.36767,0.32443 0.0463,0.2487 -0.18846,0.45263 -0.40166,0.58857 -0.60865,0.38622 -1.27757,0.70445 -1.99437,0.78478 -0.2549,0.0294 -0.51908,-0.0788 -0.39702,-0.37539 0.0618,-0.15449 0.29351,-0.27344 0.41709,-0.3754 0.45418,-0.38157 0.92536,-0.69517 1.4954,-0.88056"
     style="fill:#bcbfc0;fill-opacity:1;fill-rule:nonzero;stroke:none;stroke-width:0.0154484"
     id="path43507" /><path
     d="m 321.52646,139.4614 c -0.16684,-0.054 -0.34142,-0.0973 -0.51289,-0.0665 -0.17147,0.0309 -0.33831,0.15293 -0.36922,0.32441 -0.0447,0.24872 0.19003,0.45265 0.40321,0.58704 0.60712,0.38775 1.27603,0.70599 1.99284,0.78632 0.25643,0.0294 0.51906,-0.0788 0.39855,-0.37539 -0.0633,-0.15449 -0.29505,-0.27343 -0.41709,-0.3754 -0.45573,-0.38158 -0.92537,-0.69517 -1.4954,-0.88056"
     style="fill:#bcbfc0;fill-opacity:1;fill-rule:nonzero;stroke:none;stroke-width:0.0154484"
     id="path43509" /><path
     d="m 315.72406,145.58204 c 0.13749,0.6581 0.72762,1.14472 1.42434,1.12927 0.69518,-0.0155 1.26368,-0.52833 1.37181,-1.19108 l -2.79615,0.0619"
     style="fill:#c77165;fill-opacity:1;fill-rule:nonzero;stroke:none;stroke-width:0.0154484"
     id="path43511" /><path
     d="m 323.36172,143.78694 c 0,0.7338 -0.59476,1.32702 -1.32702,1.32702 -0.73224,0 -1.32701,-0.59322 -1.32701,-1.32702 0,-0.73224 0.59477,-1.32546 1.32701,-1.32546 0.73226,0 1.32702,0.59322 1.32702,1.32546"
     style="fill:#151212;fill-opacity:1;fill-rule:nonzero;stroke:none;stroke-width:0.0154484"
     id="path43513" /><path
     d="m 321.1078,143.70042 c 0,-0.17147 0.13904,-0.30895 0.30898,-0.30895 0.16993,0 0.30896,0.13748 0.30896,0.30895 0,0.16994 -0.13903,0.30743 -0.30896,0.30743 -0.16994,0 -0.30898,-0.13749 -0.30898,-0.30743"
     style="fill:#ffffff;fill-opacity:1;fill-rule:nonzero;stroke:none;stroke-width:0.0154484"
     id="path43515" /><path
     d="m 313.92433,143.78694 c 0,0.7338 -0.59476,1.32702 -1.32702,1.32702 -0.73379,0 -1.32701,-0.59322 -1.32701,-1.32702 0,-0.73224 0.59322,-1.32546 1.32701,-1.32546 0.73226,0 1.32702,0.59322 1.32702,1.32546"
     style="fill:#151212;fill-opacity:1;fill-rule:nonzero;stroke:none;stroke-width:0.0154484"
     id="path43517" /><path
     d="m 311.67041,143.70042 c 0,-0.17147 0.13904,-0.30895 0.30898,-0.30895 0.16993,0 0.30741,0.13748 0.30741,0.30895 0,0.16994 -0.13748,0.30743 -0.30741,0.30743 -0.16994,0 -0.30898,-0.13749 -0.30898,-0.30743"
     style="fill:#ffffff;fill-opacity:1;fill-rule:nonzero;stroke:none;stroke-width:0.0154484"
     id="path43519" /><path
     d="m 324.24846,169.63973 c 0,0 2.58605,-0.0973 2.26627,-3.76322 0,0 -0.35532,-1.21269 -0.52988,-1.90014 l -2.36823,0.85739 0.63184,4.80597"
     style="fill:#d7d6d7;fill-opacity:1;fill-rule:nonzero;stroke:none;stroke-width:0.0154484"
     id="path43521" /><path
     d="m 320.75403,166.45428 c 0,0 0.73999,-0.96861 1.45525,-1.59272 0.7137,-0.6241 1.16788,-0.9856 1.41815,-0.96552 0.25027,0.0185 0.29661,0.15758 0.17456,0.3275 -0.12203,0.16994 -1.03812,0.97789 -1.0582,1.07676 -0.0216,0.0989 0.18538,0.0447 0.29661,-0.0804 0.1112,-0.12667 0.9856,-0.97634 1.32237,-1.06902 0.33523,-0.0943 0.70445,-0.0695 0.63493,0.0957 -0.0711,0.16683 -0.43256,0.51287 -0.77242,0.78014 -0.34141,0.26725 -0.56078,0.57158 -0.53142,0.62566 0.0294,0.0526 0.25027,0.0185 0.33523,-0.0943 0.0865,-0.11278 0.52524,-0.75542 0.68126,-0.77396 0.15604,-0.0201 0.38931,0.15294 0.23019,0.36767 -0.16066,0.21473 -0.57467,0.80176 -0.66273,0.87128 -0.0896,0.0695 0.0943,0.0711 0.18074,-0.0417 0.0865,-0.11434 0.22555,-0.45727 0.29198,-0.42946 0.0679,0.0294 0.13285,0.26572 0.0494,0.42175 -0.085,0.15601 -0.13595,0.42019 -0.49898,0.51442 0,0 -0.62256,0.0757 -1.11073,0.0711 -0.48817,-0.005 -2.4362,-0.10504 -2.4362,-0.10504"
     style="fill:#d8a08e;fill-opacity:1;fill-rule:nonzero;stroke:none;stroke-width:0.0154484"
     id="path43523" /><path
     d="m 312.26363,165.93986 c -0.55613,-0.0294 -1.00723,0.43872 -0.96552,0.99487 l 0.002,0.0155 c 0.0248,0.33986 1.0582,0.71371 1.40888,0.79096 0.29816,0.0633 0.54997,0.16529 0.78787,0.26416 0.0619,0.0248 0.12205,0.0494 0.18229,0.0741 0.56232,0.23019 1.10456,0.39703 2.10407,-0.0169 l 0.13131,-0.64729 0.0572,-0.78168 c 0,0 -0.77088,-0.34296 -2.12106,-0.54069 -0.0556,-0.007 -0.11435,-0.0155 -0.17302,-0.0232 -0.0602,-0.007 -0.11894,-0.0155 -0.17766,-0.0232 -0.47427,-0.0572 -0.89136,-0.0896 -1.23586,-0.10661"
     style="fill:#d8a08e;fill-opacity:1;fill-rule:nonzero;stroke:none;stroke-width:0.0154484"
     id="path43525" /><path
     d="m 309.67758,166.17931 c 0,0 -2.0608,1.22196 -1.65606,2.31725 0.40475,1.09684 1.5711,1.47686 2.26164,1.53246 0.689,0.0556 9.23346,-1.15089 9.23346,-1.15089 0,0 -7.69172,-2.37441 -9.83904,-2.69882"
     style="fill:#d7d6d7;fill-opacity:1;fill-rule:nonzero;stroke:none;stroke-width:0.0154484"
     id="path43527" /><path
     d="m 324.22837,166.36778 c -0.0185,-0.005 -0.0371,-0.007 -0.0556,-0.0123 -1.39807,-0.26262 -7.81223,-0.41093 -7.81223,-0.41093 -0.84039,0.42947 -0.39547,1.826 -0.56232,2.26627 -0.0927,0.24255 -0.10964,0.38158 -0.10964,0.38158 0.0109,0.004 4.06138,0.73843 5.05779,0.86511 2.17358,0.27342 4.20813,0.33059 4.75964,-0.30897 0.54223,-0.63029 0.1112,-2.4841 -1.27758,-2.78071"
     style="fill:#d7d6d7;fill-opacity:1;fill-rule:nonzero;stroke:none;stroke-width:0.0154484"
     id="path43529" /><path
     d="m 319.95382,147.80968 c -0.0355,-0.0247 -0.0834,-0.0216 -0.12668,-0.0201 -0.50052,0.0216 -0.90527,-0.37075 -1.3162,-0.65656 -0.4001,-0.2796 -0.88672,-0.4758 -1.36717,-0.45108 -0.4789,-0.0278 -0.96708,0.16529 -1.37027,0.44028 -0.41247,0.28269 -0.82031,0.67199 -1.32084,0.64728 -0.0433,-0.004 -0.0911,-0.007 -0.12667,0.0185 -0.0371,0.0262 -0.0494,0.0772 -0.0447,0.12358 0.0169,0.15449 0.16684,0.25491 0.30743,0.32288 0.42946,0.20701 0.90837,0.31823 1.38263,0.28424 0.42019,-0.0294 0.83729,-0.17764 1.16789,-0.43718 0.32906,0.26262 0.74307,0.41401 1.16481,0.44646 0.47426,0.0371 0.95316,-0.0695 1.38417,-0.27344 0.14057,-0.0665 0.29197,-0.16528 0.30896,-0.31977 0.006,-0.0464 -0.006,-0.0973 -0.0433,-0.12513"
     style="fill:#cdcdd0;fill-opacity:1;fill-rule:nonzero;stroke:none;stroke-width:0.0154484"
     id="path43531" /><path
     d="m 313.60919,136.70079 c 1.27294,-0.21937 2.57369,-0.35377 3.87134,-0.38776 1.21271,-0.034 2.4115,0.0262 3.59175,0.12514 0.38775,0.0324 0.52061,-0.32597 0.1344,-0.35841 -1.23432,-0.10347 -2.48719,-0.15912 -3.75704,-0.12513 -1.35636,0.0371 -2.705,0.18539 -4.03511,0.41403 -0.38929,0.0679 -0.1931,0.39855 0.19466,0.33213"
     style="fill:#d27772;fill-opacity:1;fill-rule:nonzero;stroke:none;stroke-width:0.0154484"
     id="path43533" /><path
     d="m 315.35484,137.80071 c 1.1787,-0.32133 2.62313,-0.43565 3.75551,-0.14212 0.35066,0.0911 0.63492,-0.24563 0.28579,-0.33678 -1.2714,-0.32905 -2.90584,-0.21473 -4.23594,0.14677 -0.37231,0.10201 -0.18074,0.43409 0.19464,0.33213"
     style="fill:#d27772;fill-opacity:1;fill-rule:nonzero;stroke:none;stroke-width:0.0154484"
     id="path43535" /><path
     d="m 330.3521,137.24458 c -0.13132,0.0649 -0.28735,0.0973 -0.38776,0.207 -0.1344,0.14675 -0.12513,0.36767 -0.11278,0.56541 0.085,1.53402 0.23328,3.78948 -0.42637,5.17365 -0.4928,1.03658 -0.54996,1.87543 -1.4475,2.5706 0.0169,-0.59322 0.0247,-1.18489 0.0526,-1.76574 0.12822,-2.74981 -1.06749,-5.62784 -1.34556,-8.35601 0.1993,-0.0387 -0.088,-0.48508 -0.23943,-0.6303 -1.7395,-1.69931 -3.96097,-2.63548 -6.25813,-3.19935 0.005,-0.0201 0.005,-0.0324 0.005,-0.0324 -0.43719,-0.32595 -1.00259,-0.33832 -1.53402,-0.32595 -0.0572,0 -0.11121,0 -0.16839,0.004 -0.054,-0.0109 -0.10963,-0.0185 -0.16375,-0.0294 -0.5237,-0.0881 -1.16944,0.62566 -1.64989,0.88209 0,0 0.0602,-0.034 0,0 -2.83168,0.0757 -8.24941,2.81469 -9.62122,10.13258 -0.10661,0.56385 -0.0526,1.15553 -0.11435,1.73793 -0.0201,-0.004 -0.0401,-0.005 -0.0602,-0.01 -0.86665,-0.79868 -0.79094,-1.6267 -1.04739,-2.79461 -0.25181,-1.16789 0.39085,-2.87494 0.45573,-4.07063 0.0401,-0.73534 0.79867,-1.15708 1.09374,-1.83063 0.12668,-0.29043 0.29815,-0.56386 0.37848,-0.87129 0.0804,-0.29814 0.0757,-0.61484 0.10661,-0.92226 0.12359,-1.20033 0.83576,-2.28636 1.75956,-3.03714 0.92381,-0.75234 2.04999,-1.20189 3.18854,-1.52167 1.20497,-0.33987 2.56752,-0.51134 3.80029,-0.3136 0.12667,-0.85892 1.00415,-1.361 1.80128,-1.65297 0.49899,-0.18074 1.01031,-0.33523 1.5371,-0.39239 1.54484,-0.17455 3.08968,0.47581 4.31782,1.44751 1.22813,0.97016 2.0191,2.38986 3.23797,3.36929 1.35791,1.09528 3.0325,2.2431 3.33838,3.98567 0.10818,0.61792 0.0572,1.40425 -0.49589,1.68077"
     style="fill:#cdcdd0;fill-opacity:1;fill-rule:nonzero;stroke:none;stroke-width:0.0154484"
     id="path43537" /><path
     d="m 309.75329,143.71124 c -0.10347,-0.30433 -0.17458,-0.62565 -0.20547,-0.96088 l -0.004,-0.0387 c -0.0633,-0.76006 0.4758,-1.41197 1.154,-1.41197 0.002,0 0.004,0 0.005,0 l 0.21164,0.002 c -0.0169,0.1112 0.0325,0.18846 0.11434,0.23327 l -1.27603,2.17667"
     style="fill:#d7b3a6;fill-opacity:1;fill-rule:nonzero;stroke:none;stroke-width:0.0154484"
     id="path43539" /><path
     d="m 311.02932,141.53458 c -0.0818,-0.0448 -0.13132,-0.12205 -0.11435,-0.23328 h 0.25027 l -0.13595,0.23328"
     style="fill:#c3c8c8;fill-opacity:1;fill-rule:nonzero;stroke:none;stroke-width:0.0154484"
     id="path43541" /><path
     d="m 310.56741,145.08614 c -0.10346,-0.1112 -0.19929,-0.23017 -0.28889,-0.3553 l 1.98203,-3.3801 c 0.0355,-0.0139 0.0726,-0.0278 0.10818,-0.0433 l 0.41248,0.002 -0.74925,1.27757 c -0.44954,0.21165 -0.76161,0.67046 -0.76161,1.20034 0,0.0325 0.002,0.0633 0.004,0.0943 l -0.70599,1.20496"
     style="fill:#d7b3a6;fill-opacity:1;fill-rule:nonzero;stroke:none;stroke-width:0.0154484"
     id="path43543" /><path
     d="m 312.26055,141.35074 0.0247,-0.0433 h 0.0834 c -0.0355,0.0155 -0.0726,0.0294 -0.10818,0.0433"
     style="fill:#c3c8c8;fill-opacity:1;fill-rule:nonzero;stroke:none;stroke-width:0.0154484"
     id="path43545" /><path
     d="m 311.27339,143.88118 c -0.002,-0.0309 -0.004,-0.0618 -0.004,-0.0943 0,-0.52988 0.31206,-0.9887 0.76161,-1.20033 l -0.75852,1.29457"
     style="fill:#49484e;fill-opacity:1;fill-rule:nonzero;stroke:none;stroke-width:0.0154484"
     id="path43547" /><path
     d="m 312.91092,146.15208 c -0.0711,0 -0.14522,-0.004 -0.21782,-0.007 -0.0742,-0.006 -0.14831,-0.0139 -0.22091,-0.0247 -0.27962,-0.46962 -0.7446,-0.8203 -1.30693,-0.94234 l 0.3584,-0.61021 c 0.24099,0.33214 0.63184,0.54687 1.07365,0.54687 0.73226,0 1.32702,-0.59322 1.32702,-1.32702 0,-0.67971 -0.51288,-1.2405 -1.17098,-1.31774 l 0.67818,-1.15708 1.92795,0.007 c 0.51134,0.004 0.93463,0.46499 0.93463,1.03812 v 0.0109 c -0.007,2.09325 -1.52012,3.78331 -3.38319,3.78331"
     style="fill:#d7b3a6;fill-opacity:1;fill-rule:nonzero;stroke:none;stroke-width:0.0154484"
     id="path43549" /><path
     d="m 312.47219,146.11964 c -0.54379,-0.0788 -1.04895,-0.30588 -1.48149,-0.6442 l 0.17456,-0.29815 c 0.56233,0.12205 1.02731,0.47272 1.30693,0.94235"
     style="fill:#c89798;fill-opacity:1;fill-rule:nonzero;stroke:none;stroke-width:0.0154484"
     id="path43551" /><path
     d="m 312.59731,145.11396 c -0.44181,0 -0.83266,-0.21473 -1.07365,-0.54688 l 0.33986,-0.58085 c 0.0355,0.0139 0.0742,0.0216 0.11592,0.0216 0.16993,0 0.30741,-0.13749 0.30741,-0.30743 0,-0.0973 -0.0447,-0.18383 -0.11434,-0.24099 l 0.58085,-0.99024 c 0.6581,0.0772 1.17098,0.63802 1.17098,1.31776 0,0.73378 -0.59476,1.327 -1.32701,1.327"
     style="fill:#49484e;fill-opacity:1;fill-rule:nonzero;stroke:none;stroke-width:0.0154484"
     id="path43553" /><path
     d="m 311.97939,144.00785 c -0.0417,0 -0.0804,-0.007 -0.11592,-0.0216 l 0.30898,-0.52678 c 0.0695,0.0572 0.11434,0.14367 0.11434,0.24099 0,0.16994 -0.13748,0.30743 -0.30741,0.30743"
     style="fill:#eff4f1;fill-opacity:1;fill-rule:nonzero;stroke:none;stroke-width:0.0154484"
     id="path43555" /><path
     d="m 310.27852,144.73084 c -0.21936,-0.30434 -0.39702,-0.64729 -0.52523,-1.0196 l 1.27603,-2.17666 c 0.0633,0.0355 0.14521,0.051 0.23172,0.051 0.0262,0 0.0526,-0.002 0.0788,-0.005 0.31669,-0.0355 0.62411,-0.11737 0.92072,-0.23018 l -1.98203,3.3801 v 0"
     style="fill:#f1dbd2;fill-opacity:1;fill-rule:nonzero;stroke:none;stroke-width:0.0154484"
     id="path43557" /><path
     d="m 311.26104,141.58555 c -0.0865,0 -0.16839,-0.0155 -0.23172,-0.051 l 0.13594,-0.23327 1.12,0.006 -0.0247,0.0433 c -0.2966,0.11278 -0.60403,0.19466 -0.92073,0.23018 -0.0262,0.004 -0.0526,0.005 -0.0788,0.005"
     style="fill:#e7e6e5;fill-opacity:1;fill-rule:nonzero;stroke:none;stroke-width:0.0154484"
     id="path43559" /><path
     d="m 311.16526,145.17729 c -0.0695,-0.0139 -0.14212,-0.0262 -0.21473,-0.034 -0.0726,-0.007 -0.14522,-0.0109 -0.21628,-0.0109 -0.0401,0 -0.0804,0 -0.12051,0.004 -0.0155,-0.0169 -0.0308,-0.0324 -0.0463,-0.0494 l 0.70598,-1.20498 c 0.017,0.25491 0.10818,0.49126 0.25027,0.68592 l -0.35841,0.6102 m 0.86665,-2.59069 0.74926,-1.27758 0.65036,0.004 -0.67818,1.15708 c -0.051,-0.005 -0.10346,-0.007 -0.15603,-0.007 -0.20237,0 -0.39392,0.0448 -0.56541,0.12513"
     style="fill:#f1dbd2;fill-opacity:1;fill-rule:nonzero;stroke:none;stroke-width:0.0154484"
     id="path43561" /><path
     d="m 310.9907,145.47544 c -0.13287,-0.10347 -0.25954,-0.21628 -0.37696,-0.33986 0.0401,-0.004 0.0804,-0.004 0.12051,-0.004 0.0711,0 0.14367,0.004 0.21628,0.0109 0.0726,0.007 0.14522,0.0201 0.21473,0.034 l -0.17456,0.29815 v 0"
     style="fill:#e9cbcb;fill-opacity:1;fill-rule:nonzero;stroke:none;stroke-width:0.0154484"
     id="path43563" /><path
     d="m 311.52366,144.56708 c -0.14212,-0.19464 -0.23327,-0.43101 -0.25027,-0.6859 l 0.75852,-1.29458 c 0.17148,-0.0804 0.36304,-0.12512 0.5654,-0.12512 0.0526,0 0.10504,0.004 0.15604,0.007 l -0.58086,0.99025 c -0.0526,-0.0417 -0.12051,-0.0679 -0.1931,-0.0679 -0.16994,0 -0.30898,0.13749 -0.30898,0.30896 0,0.12822 0.0804,0.23945 0.19311,0.28579 l -0.33986,0.58087"
     style="fill:#a19fa4;fill-opacity:1;fill-rule:nonzero;stroke:none;stroke-width:0.0154484"
     id="path43565" /><path
     d="m 311.86352,143.98623 c -0.11278,-0.0464 -0.19311,-0.15757 -0.19311,-0.28581 0,-0.17147 0.13904,-0.30895 0.30898,-0.30895 0.0726,0 0.14057,0.0262 0.1931,0.0679 l -0.30897,0.52679"
     style="fill:#ffffff;fill-opacity:1;fill-rule:nonzero;stroke:none;stroke-width:0.0154484"
     id="path43567" /><path
     d="m 310.70335,141.52685 c -0.27035,-0.002 -0.53142,0.12668 -0.71371,0.35068 -0.18383,0.224 -0.27034,0.51289 -0.24409,0.81258 l 0.004,0.0371 c 0.15758,1.71167 1.42898,3.08348 2.95681,3.19162 0.88675,0.0618 1.73177,-0.27653 2.37751,-0.95625 0.64728,-0.67818 1.00568,-1.60045 1.00877,-2.59377 v -0.01 c 0,-0.44647 -0.3275,-0.81105 -0.73225,-0.81258 z m 2.19676,4.85077 c -0.0726,0 -0.14676,-0.004 -0.21937,-0.007 -1.72248,-0.12205 -3.15455,-1.66842 -3.33375,-3.59638 l -0.004,-0.0417 v 0 c -0.0355,-0.42173 0.0911,-0.84502 0.34758,-1.15862 0.25953,-0.31978 0.62874,-0.50052 1.01341,-0.49899 l 4.65613,0.0201 c 0.62566,0.004 1.1339,0.57004 1.1339,1.26367 v 0.0123 c -0.005,1.12001 -0.40782,2.15815 -1.13545,2.92283 -0.67509,0.70908 -1.54175,1.0891 -2.45937,1.08447"
     style="fill:#182333;fill-opacity:1;fill-rule:nonzero;stroke:none;stroke-width:0.0154484"
     id="path43569" /><path
     d="m 318.53566,143.82556 c -0.10347,-0.30433 -0.17456,-0.62566 -0.20546,-0.96089 l -0.004,-0.0387 c -0.0633,-0.76006 0.47736,-1.41197 1.15553,-1.41197 0.002,0 0.004,0 0.005,0 l 0.46191,0.002 -1.41353,2.40993"
     style="fill:#d7b3a6;fill-opacity:1;fill-rule:nonzero;stroke:none;stroke-width:0.0154484"
     id="path43571" /><path
     d="m 319.34978,145.20046 c -0.10201,-0.1112 -0.19928,-0.23017 -0.28888,-0.35531 l 2.00674,-3.42335 0.49589,0.002 -2.21375,3.77711"
     style="fill:#d7b3a6;fill-opacity:1;fill-rule:nonzero;stroke:none;stroke-width:0.0154484"
     id="path43573" /><path
     d="m 321.69485,146.2664 c -0.0727,0 -0.14522,-0.004 -0.21938,-0.007 -0.62719,-0.0447 -1.21114,-0.28579 -1.7024,-0.66891 l 0.94853,-1.61588 c 0.0896,0.64419 0.64419,1.14008 1.3131,1.14008 0.73226,0 1.32702,-0.59322 1.32702,-1.32701 0,-0.73226 -0.59476,-1.32548 -1.32702,-1.32548 -0.16837,0 -0.33058,0.0309 -0.47889,0.0881 l 0.6581,-1.1231 1.92949,0.007 c 0.51134,0.004 0.93309,0.46498 0.93309,1.03812 v 0.0109 c -0.005,1.17099 -0.48045,2.2153 -1.22351,2.90892 -0.0464,-0.007 -0.0927,-0.0139 -0.14059,-0.0201 -0.0726,-0.007 -0.14521,-0.0109 -0.21626,-0.0109 -0.69055,0 -1.31466,0.35222 -1.67924,0.90218 -0.0401,0.002 -0.0818,0.004 -0.12204,0.004"
     style="fill:#d7b3a6;fill-opacity:1;fill-rule:nonzero;stroke:none;stroke-width:0.0154484"
     id="path43575" /><path
     d="m 321.81689,146.26331 c 0.36458,-0.54996 0.98869,-0.90218 1.67924,-0.90218 0.0711,0 0.14365,0.004 0.21626,0.0109 0.0479,0.006 0.0943,0.0123 0.14059,0.0201 -0.55768,0.51907 -1.26368,0.84039 -2.03609,0.87129"
     style="fill:#c89798;fill-opacity:1;fill-rule:nonzero;stroke:none;stroke-width:0.0154484"
     id="path43577" /><path
     d="m 322.0347,145.11396 c -0.66891,0 -1.22349,-0.4959 -1.3131,-1.1401 l 0.83421,-1.42433 c 0.14831,-0.0572 0.31052,-0.088 0.47889,-0.088 0.73226,0 1.32702,0.59322 1.32702,1.32546 0,0.7338 -0.59476,1.32702 -1.32702,1.32702 m -0.61792,-1.72249 c -0.16994,0 -0.30898,0.13748 -0.30898,0.30895 0,0.16994 0.13904,0.30743 0.30898,0.30743 0.16993,0 0.30896,-0.13749 0.30896,-0.30743 0,-0.17147 -0.13903,-0.30895 -0.30896,-0.30895"
     style="fill:#49484e;fill-opacity:1;fill-rule:nonzero;stroke:none;stroke-width:0.0154484"
     id="path43579" /><path
     d="m 321.41678,144.00785 c -0.16994,0 -0.30898,-0.13749 -0.30898,-0.30743 0,-0.17147 0.13904,-0.30895 0.30898,-0.30895 0.16993,0 0.30896,0.13748 0.30896,0.30895 0,0.16994 -0.13903,0.30743 -0.30896,0.30743"
     style="fill:#eff4f1;fill-opacity:1;fill-rule:nonzero;stroke:none;stroke-width:0.0154484"
     id="path43581" /><path
     d="m 319.0609,144.84515 c -0.21936,-0.30434 -0.39702,-0.64884 -0.52524,-1.01959 l 1.41352,-2.40993 1.11846,0.006 -2.00674,3.42336 v 0"
     style="fill:#f1dbd2;fill-opacity:1;fill-rule:nonzero;stroke:none;stroke-width:0.0154484"
     id="path43583" /><path
     d="m 319.77307,145.58976 c -0.14985,-0.11737 -0.29197,-0.24717 -0.42329,-0.3893 l 2.21375,-3.77711 0.65038,0.004 -0.6581,1.12308 c -0.4959,0.19311 -0.84812,0.67356 -0.84812,1.23743 0,0.0633 0.005,0.12667 0.0139,0.18691 l -0.94854,1.6159 v 0"
     style="fill:#f1dbd2;fill-opacity:1;fill-rule:nonzero;stroke:none;stroke-width:0.0154484"
     id="path43585" /><path
     d="m 320.7216,143.97386 c -0.01,-0.0602 -0.0139,-0.12358 -0.0139,-0.18692 0,-0.56387 0.35223,-1.0443 0.84812,-1.23741 l -0.83422,1.42433"
     style="fill:#a19fa4;fill-opacity:1;fill-rule:nonzero;stroke:none;stroke-width:0.0154484"
     id="path43587" /><path
     d="m 319.48573,141.63963 c -0.27035,0 -0.53142,0.12822 -0.71371,0.35222 -0.18229,0.22399 -0.26881,0.51288 -0.24409,0.81258 l 0.004,0.0371 c 0.15756,1.71168 1.42897,3.0835 2.95836,3.19163 0.88672,0.0618 1.73021,-0.27652 2.37749,-0.95625 0.64574,-0.67973 1.00414,-1.60045 1.00723,-2.59377 v -0.01 c 0.002,-0.44647 -0.3275,-0.81104 -0.73226,-0.81259 z m 2.19675,4.85232 c -0.0726,0 -0.1452,-0.004 -0.21936,-0.007 -1.72248,-0.12204 -3.15455,-1.66842 -3.33221,-3.59637 l -0.005,-0.0417 v 0 0 c -0.0355,-0.42174 0.0911,-0.84503 0.34758,-1.16018 0.25954,-0.31823 0.62876,-0.49897 1.01342,-0.49744 l 4.65613,0.0201 c 0.62566,0.004 1.13545,0.57005 1.1339,1.26367 v 0.0123 c -0.004,1.12001 -0.40629,2.15814 -1.13545,2.92283 -0.6751,0.70907 -1.5402,1.08911 -2.45937,1.08448"
     style="fill:#182333;fill-opacity:1;fill-rule:nonzero;stroke:none;stroke-width:0.0154484"
     id="path43589" /><path
     d="m 318.17108,143.07323 c -0.41093,-0.32596 -0.82494,-0.42792 -1.23433,-0.30279 -0.29814,0.0911 -0.48198,0.27189 -0.48507,0.27344 l -0.31514,-0.39084 c 0.35221,-0.35842 1.28838,-0.82032 2.30643,-0.0109 l -0.27189,0.43099"
     style="fill:#182333;fill-opacity:1;fill-rule:nonzero;stroke:none;stroke-width:0.0154484"
     id="path43591" /><path
     d="m 306.42879,143.87655 c -0.0695,0 -0.13748,-0.0401 -0.17456,-0.11435 -0.054,-0.10818 -0.0201,-0.24563 0.0757,-0.30742 l 1.69159,-1.07985 c 0.24872,-0.15757 0.53143,-0.24098 0.81722,-0.23943 l 0.66119,0.002 c 0.1112,0.002 0.20083,0.10347 0.20083,0.22709 -0.002,0.12512 -0.0911,0.22709 -0.20238,0.22554 l -0.66118,-0.004 c -0.21628,0 -0.42946,0.0619 -0.61639,0.18229 l -1.6916,1.07829 c -0.0309,0.0201 -0.0664,0.0309 -0.10045,0.0294"
     style="fill:#182333;fill-opacity:1;fill-rule:nonzero;stroke:none;stroke-width:0.0154484"
     id="path43593" /><path
     d="m 328.35463,143.97386 c 0.0695,0.002 0.13748,-0.0401 0.17456,-0.11277 0.0556,-0.10818 0.0232,-0.24563 -0.0726,-0.30895 l -1.68387,-1.09376 c -0.24717,-0.16066 -0.52988,-0.24562 -0.81567,-0.24717 l -0.6612,-0.004 c -0.1112,-0.002 -0.20236,0.10045 -0.20236,0.22555 0,0.12513 0.0896,0.22554 0.20081,0.22709 l 0.6612,0.004 c 0.21627,0 0.42793,0.0649 0.61485,0.18693 l 1.68386,1.09374 c 0.0308,0.0201 0.0665,0.0294 0.10045,0.0294"
     style="fill:#182333;fill-opacity:1;fill-rule:nonzero;stroke:none;stroke-width:0.0154484"
     id="path43595" /><path
     d="m 318.8678,136.36092 c 1.34709,1.36101 3.47433,2.11179 5.2308,1.35173 0.49127,-0.21319 0.98869,-0.64573 0.92073,-1.17562 0.26262,0.64266 0.84194,1.14628 1.51393,1.31929 0.672,0.17302 1.42126,0.0109 1.96194,-0.42483 -0.50207,-1.20497 -1.04431,-2.40222 -1.79818,-3.4666 -0.75389,-1.0644 -1.73794,-1.99592 -2.93673,-2.51036 -1.05049,-0.45263 -2.21221,-0.56541 -3.34457,-0.73225 -0.78941,-0.11736 -1.58654,-0.26262 -2.38213,-0.1931 -0.4959,0.0433 -1.43207,0.18693 -1.65606,0.72144 -0.18693,0.44645 0.20082,1.13545 0.35531,1.5402 0.49743,1.30074 1.14471,2.57214 2.13496,3.5701"
     style="fill:#cdcdd0;fill-opacity:1;fill-rule:nonzero;stroke:none;stroke-width:0.0154484"
     id="path43597" /><path
     d="m 323.83598,129.88189 c 0.80795,0.53761 1.53248,1.23741 1.95268,2.11334 0.0602,0.12821 0.11737,0.27034 0.0865,0.40937 -0.0294,0.13904 -0.14057,0.24718 -0.25644,0.3306 -0.26571,0.19156 -0.5824,0.30279 -0.86047,0.47426 -0.27961,0.17303 -0.53452,0.43874 -0.55923,0.76623 -0.0262,0.35995 0.23326,0.6921 0.22399,1.05358 -0.0109,0.43102 -0.39238,0.75389 -0.76159,0.9779 -0.39239,0.23635 -0.82958,0.43255 -1.2884,0.42944 -0.59475,-0.006 -1.13081,-0.34603 -1.60663,-0.70444 -0.42019,-0.31669 -0.83112,-0.66736 -1.09991,-1.12153 -0.14059,-0.23637 -0.23173,-0.56079 -0.0526,-0.76934 0.17148,-0.19929 0.48199,-0.17302 0.74153,-0.12976 0.2348,0.0387 0.46808,0.0772 0.7029,0.11592 0.13285,0.0216 0.27652,0.0417 0.39392,-0.0216 0.20392,-0.10963 0.21628,-0.39547 0.17921,-0.62257 -0.0387,-0.2379 -0.10202,-0.47425 -0.0973,-0.71525 0.006,-0.241 0.0927,-0.49589 0.29352,-0.6303 0.35686,-0.23944 0.92999,-0.0216 1.21115,-0.34758 0.18229,-0.2101 0.11894,-0.55151 -0.0572,-0.76779 -0.17611,-0.21627 -0.43564,-0.34295 -0.67818,-0.48044 -0.27961,-0.15757 -0.54687,-0.33678 -0.79713,-0.53605 -0.49436,-0.39085 -0.71063,-1.29766 0.15448,-0.94699 0.75233,0.30279 1.49848,0.6751 2.17512,1.12309"
     style="fill:#e1dedc;fill-opacity:1;fill-rule:nonzero;stroke:none;stroke-width:0.0154484"
     id="path43599" /><circle
     style="fill:none;fill-opacity:1;stroke:#ffcc00;stroke-width:0.742;stroke-linecap:square;stroke-dasharray:none"
     id="circle43601"
     cx="317.98535"
     cy="148.67117"
     r="23.945591" /></svg>
