<?xml version="1.0" encoding="UTF-8" standalone="no"?>
<!-- Created with Inkscape (http://www.inkscape.org/) -->

<svg
   width="50mm"
   height="50mm"
   viewBox="0 0 50 50"
   version="1.1"
   id="svg5"
   inkscape:version="1.2.1 (9c6d41e4, 2022-07-14)"
   sodipodi:docname="issues.svg"
   xml:space="preserve"
   inkscape:export-filename="../../../../../issues.png"
   inkscape:export-xdpi="96"
   inkscape:export-ydpi="96"
   xmlns:inkscape="http://www.inkscape.org/namespaces/inkscape"
   xmlns:sodipodi="http://sodipodi.sourceforge.net/DTD/sodipodi-0.dtd"
   xmlns="http://www.w3.org/2000/svg"
   xmlns:svg="http://www.w3.org/2000/svg"><sodipodi:namedview
     id="namedview7"
     pagecolor="#ffffff"
     bordercolor="#000000"
     borderopacity="0.25"
     inkscape:showpageshadow="2"
     inkscape:pageopacity="0.0"
     inkscape:pagecheckerboard="0"
     inkscape:deskcolor="#d1d1d1"
     inkscape:document-units="mm"
     showgrid="false"
     inkscape:zoom="0.73710473"
     inkscape:cx="101.07112"
     inkscape:cy="110.56773"
     inkscape:window-width="1309"
     inkscape:window-height="717"
     inkscape:window-x="265"
     inkscape:window-y="175"
     inkscape:window-maximized="0"
     inkscape:current-layer="layer1" /><defs
     id="defs2" /><g
     inkscape:label="Layer 1"
     inkscape:groupmode="layer"
     id="layer1"><path
       id="path5595"
       style="fill:#ffffff;stroke-width:0.742;stroke-linecap:square"
       d="m 25.388119,5.0663574 c -1.705209,0.043858 -3.410243,1.261257 -5.11545,3.0427084 L 3.5475892,36.74401 c -1.519747,6.550243 1.2932221,8.286726 5.8285844,8.109066 l 30.9154284,0.506429 c 4.786134,-0.400812 7.857411,-2.326207 6.588746,-8.109066 L 29.902055,8.1090658 C 28.39746,5.9026878 26.892714,5.0276593 25.388119,5.0663574 Z m -0.326595,8.3943196 c 1.990802,0 3.593579,1.602777 3.593579,3.593579 v 9.300724 c 0,1.990803 -1.602777,3.59358 -3.593579,3.59358 -1.990803,0 -3.593578,-1.602777 -3.593578,-3.59358 v -9.300724 c 0,-1.990802 1.602775,-3.593579 3.593578,-3.593579 z M 24.81451,33.183504 h 0.211357 c 1.873699,0 3.382222,1.508525 3.382222,3.382223 0,1.873698 -1.508523,3.382222 -3.382222,3.382222 H 24.81451 c -1.873698,0 -3.382221,-1.508524 -3.382221,-3.382222 0,-1.873698 1.508523,-3.382223 3.382221,-3.382223 z" /></g></svg>
