<?xml version="1.0" encoding="UTF-8" standalone="no"?>
<!-- Created with Inkscape (http://www.inkscape.org/) -->

<svg
   width="160mm"
   height="160mm"
   viewBox="0 0 160 160"
   version="1.1"
   id="svg46167"
   inkscape:version="1.2.1 (9c6d41e4, 2022-07-14)"
   sodipodi:docname="logo.svg"
   inkscape:export-filename="logo.png"
   inkscape:export-xdpi="96"
   inkscape:export-ydpi="96"
   xmlns:inkscape="http://www.inkscape.org/namespaces/inkscape"
   xmlns:sodipodi="http://sodipodi.sourceforge.net/DTD/sodipodi-0.dtd"
   xmlns="http://www.w3.org/2000/svg"
   xmlns:svg="http://www.w3.org/2000/svg">
  <sodipodi:namedview
     id="namedview46169"
     pagecolor="#ffffff"
     bordercolor="#000000"
     borderopacity="0.25"
     inkscape:showpageshadow="2"
     inkscape:pageopacity="0.0"
     inkscape:pagecheckerboard="0"
     inkscape:deskcolor="#d1d1d1"
     inkscape:document-units="mm"
     showgrid="false"
     inkscape:zoom="0.4204826"
     inkscape:cx="424.51221"
     inkscape:cy="447.1053"
     inkscape:window-width="1361"
     inkscape:window-height="716"
     inkscape:window-x="269"
     inkscape:window-y="161"
     inkscape:window-maximized="0"
     inkscape:current-layer="layer1" />
  <defs
     id="defs46164" />
  <g
     inkscape:label="Layer 1"
     inkscape:groupmode="layer"
     id="layer1">
    <circle
       style="fill:#fff4af;fill-opacity:1;stroke:#000000;stroke-width:1.97057;stroke-linecap:square;stroke-dasharray:none"
       id="circle43465"
       cx="80.542366"
       cy="81.80085"
       r="73.516548" />
    <path
       id="path43467"
       style="fill:#fff9d0;fill-opacity:1;stroke:none;stroke-width:1.97057;stroke-linecap:square;stroke-dasharray:none"
       d="M 80.542486,8.2839559 A 73.516549,73.516549 0 0 0 11.160481,57.648366 73.801087,37.042814 0 0 0 80.542486,82.085346 73.801087,37.042814 0 0 0 149.96189,57.601606 73.516549,73.516549 0 0 0 80.542486,8.2839559 Z" />
    <path
       d="m 56.610884,141.08362 c 0.683017,-0.86793 7.759343,-19.51688 8.541955,-23.35865 1.280529,-6.30799 -2.855239,-5.52544 -5.734149,-4.84718 -2.442581,0.5786 -3.367463,3.21091 -3.628303,3.47651 -2.124789,2.1912 -6.36967,17.34466 -6.374398,17.52018 0,0 0.393654,0.48849 1.000715,1.20942 1.849734,2.21966 5.681987,6.65428 6.19418,5.99972"
       style="fill:#d7d6d7;fill-opacity:1;fill-rule:nonzero;stroke:none;stroke-width:0.0474289"
       id="path43469" />
    <path
       d="m 55.92796,147.02645 c 0,0 -7.939591,-0.29873 -6.95306,-11.54889 0,0 1.090824,-3.7279 1.62678,-5.83375 l 7.270821,2.62756 -1.944541,14.75508"
       style="fill:#d7d6d7;fill-opacity:1;fill-rule:nonzero;stroke:none;stroke-width:0.0474289"
       id="path43471" />
    <path
       d="m 99.088063,140.23466 c -0.678227,-0.86796 -7.754615,-19.52164 -8.537134,-23.36338 -1.280621,-6.30329 2.855177,-5.52547 5.734087,-4.84248 2.442581,0.57863 3.367433,3.21094 3.628273,3.47654 2.124851,2.18647 6.364941,17.34466 6.374461,17.51542 0,0 -0.39366,0.48849 -1.00078,1.21415 -1.85446,2.21969 -5.681955,6.65425 -6.198907,5.99975"
       style="fill:#d7d6d7;fill-opacity:1;fill-rule:nonzero;stroke:none;stroke-width:0.0474289"
       id="path43473" />
    <path
       d="m 102.47447,152.2531 -4.595831,-36.65768 c -0.01228,-0.0712 -0.02149,-0.14706 -0.04268,-0.21829 -0.569114,-2.21017 -1.996733,-4.00774 -3.879625,-4.8804 l -4.870946,-2.2576 c -0.128026,-0.0568 -0.251139,-0.13755 -0.360344,-0.23241 l -2.115333,-1.85443 c -0.222893,-0.18974 -0.49325,-0.31767 -0.782581,-0.35553 -2.461554,-0.34622 -14.285529,-1.992 -14.7171,-1.76908 -0.308397,0.15658 -3.011725,3.02115 -4.942051,5.08432 -0.284603,0.30837 -0.683016,0.50277 -1.1051,0.47431 -0.365164,-0.0307 -0.754152,0.0522 -1.119346,0.26096 l -6.322237,3.64255 c -0.569144,0.32731 -0.939097,0.92012 -0.981772,1.57462 l 0.422115,36.77631 c -0.0568,0.83953 20.531902,4.02251 22.362632,4.04624 1.906625,0.0307 16.364082,-2.14072 21.135369,-2.89487 0.90032,-1.82027 2.01457,0.0721 1.91501,-0.73884"
       style="fill:#e9e7e5;fill-opacity:1;fill-rule:nonzero;stroke:none;stroke-width:0.0474289"
       id="path43475"
       sodipodi:nodetypes="cccscccccccccccccc" />
    <path
       d="m 82.364712,76.438296 c -0.19434,-2.49001 -2.423607,-4.45356 -5.150759,-4.45356 -2.727153,0 -4.961055,1.96355 -5.15076,4.45356 l -2.148521,27.669884 c -0.05219,0.32731 -0.07583,0.65456 -0.07583,0.99129 0,3.78479 3.300994,3.40538 7.375175,3.40538 4.07412,0 7.375144,0.37941 7.375144,-3.40538 0,-0.33658 -0.0307,-0.66401 -0.07583,-0.99129 L 82.36484,76.438296"
       style="fill:#d8a08e;fill-opacity:1;fill-rule:evenodd;stroke:none;stroke-width:0.0474289"
       id="path43477" />
    <path
       d="m 69.777129,105.73502 c 5.278816,0.0123 9.623292,0.12803 14.811968,-1.41813 L 82.488009,75.669936 c -0.199252,-2.675 -2.47104,-4.79027 -5.240899,-4.79027 -2.779283,0 -5.051133,2.11527 -5.245596,4.79027 L 69.815046,105.4362 c -0.01535,0.0995 -0.02149,0.19926 -0.03776,0.29873"
       style="fill:#c77165;fill-opacity:1;fill-rule:evenodd;stroke:none;stroke-width:0.0474289"
       id="path43479" />
    <path
       d="m 80.718928,108.67082 -1.105101,3.36271 c -0.04759,0.14706 -0.10899,0.27969 -0.190042,0.39841 0.07123,0.25605 0.137543,0.52174 0.190042,0.77306 0.0568,0.29382 0.190043,0.55969 0.388927,0.75888 0.483763,0.49801 1.218941,0.50274 1.71692,0.0154 l 2.015707,-1.992 -3.016453,-3.31527"
       style="fill:#cfd0d1;fill-opacity:1;fill-rule:nonzero;stroke:none;stroke-width:0.0474289"
       id="path43481" />
    <path
       d="m 75.174514,108.3199 2.428335,0.0663 0.749362,0.0215 2.18174,0.0568 -0.237015,-0.26097 -7.365689,0.0568 -2.988023,1.65524 4.24964,3.78482 c 0.474308,0.42688 1.152504,0.41263 1.622052,-0.0307 l 0.01842,-0.0154 c 0.222893,-0.21338 0.379409,-0.50274 0.441089,-0.82529 0.02149,-0.12311 0.05219,-0.26096 0.08535,-0.41259 -0.09026,-0.14246 -0.165788,-0.30364 -0.213376,-0.47904 l -0.972285,-3.62358"
       style="fill:#cfd0d1;fill-opacity:1;fill-rule:nonzero;stroke:none;stroke-width:0.0474289"
       id="path43483" />
    <path
       d="m 78.276317,108.38628 c -1.811726,1.10983 -2.286034,2.21969 -2.570637,3.95082 -0.123113,0.76834 -0.773063,1.27583 -1.451321,1.13826 -0.19434,-0.0378 -0.379409,-0.12803 -0.540684,-0.26557 l -6.549857,-5.71517 c 0.03776,-1.36594 2.29552,-3.09235 2.29552,-3.09235 l 8.816979,3.98401"
       style="fill:#dcdcdb;fill-opacity:1;fill-rule:nonzero;stroke:none;stroke-width:0.0474289"
       id="path43485" />
    <path
       d="m 77.588603,108.36731 c 1.754898,1.20466 2.167495,2.33822 2.357261,4.0836 0.08044,0.77307 0.701928,1.31854 1.384883,1.21891 0.199253,-0.0307 0.388927,-0.1139 0.55493,-0.24192 l 6.853433,-5.34999 c 0.03346,-1.36591 -2.864695,-3.15399 -2.864695,-3.15399 l -8.285812,3.44336"
       style="fill:#dcdcdb;fill-opacity:1;fill-rule:nonzero;stroke:none;stroke-width:0.0474289"
       id="path43487" />
    <path
       d="m 102.90604,152.7321 -5.027401,-37.13668 c -0.01228,-0.0712 -0.02149,-0.14706 -0.04268,-0.21829 -0.569114,-2.21017 -1.996733,-4.00774 -3.879625,-4.8804 L 90.014968,108.6707 C 89.88203,108.609 78.02502,133.04434 77.58866,133.26251 77.280294,133.41908 66.120392,108.69916 65.703066,108.6707 c -0.365163,-0.0307 -1.394431,0.96756 -1.759625,1.17623 l -6.322237,3.64255 c -0.569175,0.32731 -0.939097,0.92013 -0.981803,1.57465 l -0.25605,36.01197 c -0.06171,0.8395 21.655116,4.15529 23.485877,4.17899 1.906624,0.0307 16.444674,-1.88102 21.216022,-2.63511 0.90029,-2.47838 1.92529,0.91828 1.82094,0.11206"
       style="fill:#4356d9;fill-opacity:1;fill-rule:nonzero;stroke:none;stroke-width:0.0474289"
       id="path43491"
       sodipodi:nodetypes="cccccccccccccc" />
    <path
       d="m 113.89051,67.521726 c 3.77537,0.40311 6.51201,3.79427 6.10887,7.56957 -0.40315,3.77534 -3.78952,6.51201 -7.56488,6.10883 -3.78003,-0.40317 -6.51195,-3.78954 -6.1088,-7.56484 0.39838,-3.78009 3.78478,-6.51198 7.56481,-6.11356"
       style="fill:#c77165;fill-opacity:1;fill-rule:evenodd;stroke:none;stroke-width:0.0474289"
       id="path43493" />
    <path
       d="m 46.091201,60.307796 c 3.775363,0.39838 6.511971,3.78482 6.10883,7.56485 -0.403141,3.77536 -3.789547,6.512 -7.564879,6.10883 -3.775302,-0.40311 -6.5167,-3.78955 -6.113559,-7.56485 0.403142,-3.78009 3.789578,-6.51197 7.569608,-6.10883"
       style="fill:#c77165;fill-opacity:1;fill-rule:evenodd;stroke:none;stroke-width:0.0474289"
       id="path43495" />
    <path
       d="m 81.088881,21.985386 5.705658,0.60709 c 16.813491,1.78806 29.107011,17.01268 27.314201,33.82614 l -2.10112,19.74932 c -1.79278,16.8135 -17.01265,29.106994 -33.830868,27.314174 l -5.700931,-0.60709 C 55.662331,101.08703 43.368807,85.862366 45.16159,69.048906 l 2.101119,-19.74935 c 1.788055,-16.81343 17.012681,-29.10695 33.826172,-27.31417"
       style="fill:#d8a08e;fill-opacity:1;fill-rule:evenodd;stroke:none;stroke-width:0.0474289"
       id="path43497" />
    <path
       d="m 98.125233,71.671736 c -3.40062,-0.36034 -6.450292,2.10582 -6.815486,5.50644 -0.360344,3.40062 2.101118,6.45029 5.506436,6.81551 3.400687,0.36032 6.450357,-2.10108 6.810787,-5.50649 0.36517,-3.40062 -2.10105,-6.45026 -5.501737,-6.81546"
       style="fill:#c3797d;fill-opacity:1;fill-rule:evenodd;stroke:none;stroke-width:0.0474289"
       id="path43499" />
    <path
       d="m 58.944413,70.969746 c -3.400651,-0.36031 -6.450292,2.10109 -6.815517,5.50174 -0.360344,3.40538 2.105815,6.45505 5.506467,6.81552 3.40062,0.36034 6.450323,-2.10109 6.815517,-5.50174 0.360313,-3.40062 -2.105846,-6.45505 -5.506467,-6.81552"
       style="fill:#c3797d;fill-opacity:1;fill-rule:evenodd;stroke:none;stroke-width:0.0474289"
       id="path43501" />
    <path
       d="m 82.497527,80.322716 c 0.284603,-0.21338 0.697169,-0.15658 0.910576,0.13293 0.218287,0.28952 0.156577,0.69724 -0.128026,0.91064 -0.6972,0.52168 -1.607806,0.9391 -2.641771,1.20946 -0.981804,0.25605 -2.082145,0.38889 -3.239377,0.35549 -1.157262,-0.0335 -2.248148,-0.22289 -3.215674,-0.53117 -1.014961,-0.32731 -1.897138,-0.79207 -2.565909,-1.35172 -0.27969,-0.22781 -0.312817,-0.64031 -0.08535,-0.9154 0.23241,-0.27508 0.645039,-0.31322 0.920155,-0.0804 0.540622,0.45055 1.271072,0.82999 2.134276,1.1098 0.844199,0.27048 1.811756,0.43636 2.850449,0.46482 1.033935,0.0307 2.01101,-0.0854 2.874182,-0.31322 0.87269,-0.2278 1.622053,-0.56914 2.186469,-0.99129"
       style="fill:#be6372;fill-opacity:1;fill-rule:evenodd;stroke:none;stroke-width:0.0474289"
       id="path43503" />
    <path
       d="m 79.16798,84.335156 c 0.355524,-0.0519 0.687744,0.19925 0.735148,0.5549 0.05188,0.35589 -0.198946,0.68774 -0.554899,0.73517 -0.322489,0.0476 -0.654525,0.0804 -1.000716,0.0995 -0.341431,0.0184 -0.683016,0.0215 -1.024509,0.0154 -0.332128,-0.0123 -0.673468,-0.0335 -1.019688,-0.0712 v 0 c -0.336581,-0.0378 -0.673468,-0.0903 -0.995988,-0.15167 -0.351071,-0.0663 -0.58342,-0.41262 -0.512285,-0.76357 0.07123,-0.35104 0.41269,-0.58336 0.763608,-0.51223 0.279691,0.0519 0.573903,0.0995 0.872721,0.13294 h 0.01535 v 0 c 0.284603,0.0335 0.588088,0.0519 0.915366,0.0617 0.312848,0.0123 0.621306,0.006 0.915365,-0.0123 0.298725,-0.0184 0.597604,-0.0476 0.891663,-0.0903"
       style="fill:#be6372;fill-opacity:1;fill-rule:evenodd;stroke:none;stroke-width:0.0474289"
       id="path43505" />
    <path
       d="m 64.792342,55.024216 c 0.507496,-0.16579 1.04818,-0.29872 1.574649,-0.20416 0.526469,0.0949 1.033965,0.46955 1.128802,0.99605 0.142148,0.76354 -0.5786,1.38964 -1.233156,1.80699 -1.868647,1.18576 -3.922331,2.16277 -6.123015,2.4094 -0.782581,0.0903 -1.593653,-0.24193 -1.21891,-1.15251 0.189735,-0.4743 0.901119,-0.8395 1.280528,-1.15253 1.394401,-1.17148 2.840994,-2.13428 4.591102,-2.70345"
       style="fill:#bcbfc0;fill-opacity:1;fill-rule:nonzero;stroke:none;stroke-width:0.0474289"
       id="path43507" />
    <path
       d="m 91.414101,53.525466 c -0.512224,-0.16579 -1.04821,-0.29873 -1.574649,-0.20417 -0.526438,0.0949 -1.038662,0.46952 -1.133561,0.99599 -0.137235,0.76361 0.583421,1.3897 1.237916,1.8023 1.863949,1.19045 3.917603,2.1675 6.118317,2.41412 0.787278,0.0903 1.593591,-0.24193 1.223608,-1.1525 -0.194341,-0.47431 -0.905848,-0.83947 -1.280529,-1.15254 -1.399159,-1.1715 -2.841024,-2.13427 -4.591102,-2.70345"
       style="fill:#bcbfc0;fill-opacity:1;fill-rule:nonzero;stroke:none;stroke-width:0.0474289"
       id="path43509" />
    <path
       d="m 73.599865,72.316746 c 0.422115,2.02046 2.233902,3.51446 4.372937,3.46703 2.134306,-0.0476 3.879686,-1.62206 4.211662,-3.6568 l -8.584599,0.19005"
       style="fill:#c77165;fill-opacity:1;fill-rule:nonzero;stroke:none;stroke-width:0.0474289"
       id="path43511" />
    <path
       d="m 97.048624,66.805516 c 0,2.25288 -1.826002,4.07415 -4.07415,4.07415 -2.248086,0 -4.074119,-1.82127 -4.074119,-4.07415 0,-2.24808 1.826033,-4.06936 4.074119,-4.06936 2.248148,0 4.07415,1.82128 4.07415,4.06936"
       style="fill:#151212;fill-opacity:1;fill-rule:nonzero;stroke:none;stroke-width:0.0474289"
       id="path43513" />
    <path
       d="m 90.128752,66.539886 c 0,-0.52643 0.426874,-0.94852 0.948615,-0.94852 0.521711,0 0.948554,0.42209 0.948554,0.94852 0,0.52175 -0.426843,0.94386 -0.948554,0.94386 -0.521741,0 -0.948615,-0.42211 -0.948615,-0.94386"
       style="fill:#ffffff;fill-opacity:1;fill-rule:nonzero;stroke:none;stroke-width:0.0474289"
       id="path43515" />
    <path
       d="m 68.074424,66.805516 c 0,2.25288 -1.826002,4.07415 -4.07415,4.07415 -2.252845,0 -4.074119,-1.82127 -4.074119,-4.07415 0,-2.24808 1.821274,-4.06936 4.074119,-4.06936 2.248148,0 4.07415,1.82128 4.07415,4.06936"
       style="fill:#151212;fill-opacity:1;fill-rule:nonzero;stroke:none;stroke-width:0.0474289"
       id="path43517" />
    <path
       d="m 61.154552,66.539886 c 0,-0.52643 0.426874,-0.94852 0.948615,-0.94852 0.521711,0 0.943795,0.42209 0.943795,0.94852 0,0.52175 -0.422084,0.94386 -0.943795,0.94386 -0.521741,0 -0.948615,-0.42211 -0.948615,-0.94386"
       style="fill:#ffffff;fill-opacity:1;fill-rule:nonzero;stroke:none;stroke-width:0.0474289"
       id="path43519" />
    <path
       d="m 99.771049,146.17746 c 0,0 7.939561,-0.29873 6.957791,-11.55365 0,0 -1.09089,-3.72314 -1.62681,-5.83371 l -7.270825,2.63231 1.939844,14.75505"
       style="fill:#d7d6d7;fill-opacity:1;fill-rule:nonzero;stroke:none;stroke-width:0.0474289"
       id="path43521" />
    <path
       d="m 89.042625,136.39765 c 0,0 2.271881,-2.97378 4.467836,-4.88989 2.191166,-1.91608 3.585566,-3.02594 4.353933,-2.96429 0.768366,0.0568 0.910637,0.48379 0.535925,1.00547 -0.37465,0.52175 -3.187184,3.00227 -3.248832,3.30582 -0.06632,0.30364 0.569144,0.13723 0.910637,-0.24684 0.3414,-0.3889 3.025939,-2.99751 4.059876,-3.28205 1.0292,-0.28952 2.16276,-0.21338 1.94933,0.29381 -0.21829,0.51219 -1.32803,1.57459 -2.371447,2.39515 -1.04818,0.82049 -1.721679,1.75483 -1.631539,1.92087 0.09026,0.16149 0.768366,0.0568 1.029206,-0.28952 0.265568,-0.34625 1.61257,-2.31925 2.09157,-2.37617 0.47907,-0.0617 1.19524,0.46955 0.70672,1.1288 -0.49325,0.65925 -1.76432,2.46152 -2.034682,2.67496 -0.275086,0.21338 0.289512,0.21829 0.554902,-0.12802 0.26556,-0.35105 0.69247,-1.40389 0.89642,-1.31851 0.20846,0.0903 0.40787,0.8158 0.15166,1.29483 -0.26096,0.47898 -0.41738,1.29005 -1.531939,1.57935 0,0 -1.911353,0.23241 -3.410108,0.21829 -1.498755,-0.0153 -7.479498,-0.32249 -7.479498,-0.32249"
       style="fill:#d8a08e;fill-opacity:1;fill-rule:nonzero;stroke:none;stroke-width:0.0474289"
       id="path43523" />
    <path
       d="m 62.975827,134.8183 c -1.707403,-0.0903 -3.092347,1.34694 -2.964291,3.0544 l 0.0061,0.0476 c 0.07614,1.04342 3.248832,2.1912 4.325472,2.42837 0.915396,0.19434 1.688491,0.50746 2.418879,0.81101 0.190043,0.0761 0.374712,0.15166 0.559658,0.2275 1.726406,0.70671 3.391164,1.21894 6.45981,-0.0519 l 0.403141,-1.98728 0.175613,-2.39987 c 0,0 -2.366717,-1.05294 -6.511972,-1.66 -0.1707,-0.0215 -0.351072,-0.0476 -0.531197,-0.0712 -0.184823,-0.0215 -0.365164,-0.0476 -0.545443,-0.0712 -1.45608,-0.17561 -2.736609,-0.27508 -3.794275,-0.32731"
       style="fill:#d8a08e;fill-opacity:1;fill-rule:nonzero;stroke:none;stroke-width:0.0474289"
       id="path43525" />
    <path
       d="m 55.036266,135.55345 c 0,0 -6.326964,3.7516 -5.084352,7.11431 1.242643,3.36746 4.823512,4.53418 6.943573,4.70488 2.115333,0.1707 28.348105,-3.53341 28.348105,-3.53341 0,0 -23.614732,-7.28979 -30.207326,-8.28578"
       style="fill:#d7d6d7;fill-opacity:1;fill-rule:nonzero;stroke:none;stroke-width:0.0474289"
       id="path43527" />
    <path
       d="m 99.709369,136.13208 c -0.0568,-0.0154 -0.113902,-0.0215 -0.1707,-0.0378 -4.292284,-0.80628 -23.984715,-1.26162 -23.984715,-1.26162 -2.580124,1.31854 -1.214153,5.6061 -1.726407,6.95779 -0.284603,0.74467 -0.336611,1.17151 -0.336611,1.17151 0.03346,0.0123 12.469044,2.26709 15.528172,2.65602 6.673216,0.83944 12.919592,1.01496 14.612812,-0.94859 1.66472,-1.93508 0.3414,-7.62656 -3.922366,-8.53719"
       style="fill:#d7d6d7;fill-opacity:1;fill-rule:nonzero;stroke:none;stroke-width:0.0474289"
       id="path43529" />
    <path
       d="m 86.585861,79.155936 c -0.10899,-0.0758 -0.25605,-0.0663 -0.388927,-0.0617 -1.536671,0.0663 -2.779314,-1.13826 -4.040931,-2.01574 -1.228366,-0.85841 -2.722363,-1.46078 -4.197416,-1.38488 -1.470295,-0.0854 -2.96908,0.50746 -4.206934,1.35172 -1.266345,0.8679 -2.518475,2.06311 -4.055177,1.98725 -0.132937,-0.0123 -0.27969,-0.0215 -0.388895,0.0568 -0.113903,0.0804 -0.151666,0.23701 -0.137236,0.37941 0.05188,0.4743 0.512224,0.78261 0.943856,0.99129 1.318506,0.63555 2.788832,0.97701 4.244881,0.87265 1.290046,-0.0903 2.570606,-0.54538 3.585597,-1.3422 1.010264,0.80628 2.281336,1.27107 3.576141,1.3707 1.456049,0.1139 2.926344,-0.21338 4.249609,-0.83951 0.431571,-0.20416 0.896392,-0.50743 0.948554,-0.98174 0.01842,-0.14245 -0.01842,-0.29872 -0.132938,-0.38417"
       style="fill:#cdcdd0;fill-opacity:1;fill-rule:nonzero;stroke:none;stroke-width:0.0474289"
       id="path43531" />
    <path
       d="m 67.106897,45.049976 c 3.908117,-0.6735 7.901614,-1.08612 11.885593,-1.19048 3.723202,-0.10438 7.403666,0.0804 11.027211,0.3842 1.19045,0.0995 1.59835,-1.00078 0.412628,-1.10037 -3.789547,-0.31767 -7.636046,-0.48853 -11.534675,-0.38417 -4.164229,0.1139 -8.304755,0.56917 -12.388392,1.27113 -1.195179,0.20847 -0.592846,1.22361 0.597635,1.01969"
       style="fill:#d27772;fill-opacity:1;fill-rule:nonzero;stroke:none;stroke-width:0.0474289"
       id="path43533" />
    <path
       d="m 72.466304,48.426896 c 3.618785,-0.98653 8.053402,-1.33751 11.529978,-0.43633 1.076579,0.27969 1.949299,-0.75412 0.877418,-1.03396 -3.903388,-1.01024 -8.921364,-0.65926 -13.00497,0.4506 -1.143047,0.31319 -0.554899,1.33272 0.597574,1.01969"
       style="fill:#d27772;fill-opacity:1;fill-rule:nonzero;stroke:none;stroke-width:0.0474289"
       id="path43535" />
    <path
       d="m 118.51014,46.719496 c -0.40317,0.19925 -0.88221,0.29872 -1.19048,0.63552 -0.41263,0.45054 -0.38417,1.1288 -0.34626,1.73589 0.26097,4.70967 0.71621,11.63427 -1.30901,15.88388 -1.51297,3.18246 -1.68846,5.75785 -4.44405,7.89213 0.0519,-1.82127 0.0758,-3.63779 0.16149,-5.42109 0.39366,-8.44232 -3.27735,-17.27831 -4.13107,-25.6542 0.61188,-0.11881 -0.27017,-1.48927 -0.73508,-1.93511 -5.34053,-5.21714 -12.160775,-8.09132 -19.2134,-9.82249 0.01535,-0.0617 0.01535,-0.0995 0.01535,-0.0995 -1.342239,-1.00071 -3.078101,-1.03869 -4.709671,-1.00071 -0.175612,0 -0.341431,0 -0.516982,0.0123 -0.165788,-0.0335 -0.336581,-0.0568 -0.502737,-0.0903 -1.607838,-0.27048 -3.590356,1.92087 -5.06541,2.70815 0,0 0.184823,-0.10438 0,0 -8.693681,0.23241 -25.326923,8.64152 -29.538585,31.10854 -0.327309,1.7311 -0.16149,3.54765 -0.351072,5.3357 -0.06171,-0.0123 -0.123113,-0.0154 -0.184823,-0.0307 -2.660745,-2.45206 -2.428304,-4.99421 -3.215644,-8.57987 -0.773094,-3.5856 1.199968,-8.82649 1.39916,-12.49744 0.123113,-2.25761 2.452036,-3.55241 3.357945,-5.62031 0.388927,-0.89166 0.915365,-1.73113 1.16199,-2.67499 0.24684,-0.91533 0.232411,-1.88765 0.327309,-2.83148 0.37944,-3.68519 2.565908,-7.01946 5.402112,-9.32447 2.836235,-2.3098 6.293777,-3.68998 9.789296,-4.67176 3.699438,-1.04345 7.88267,-1.56989 11.667459,-0.96279 0.388896,-2.63702 3.08289,-4.17848 5.530199,-5.07487 1.531974,-0.5549 3.101803,-1.02921 4.719127,-1.2047 4.74289,-0.53589 9.48578,1.46081 13.256354,4.44408 3.770543,2.97853 6.198943,7.33722 9.941053,10.34422 4.16899,3.36267 9.31023,6.88665 10.24933,12.2366 0.33212,1.89711 0.17561,4.31126 -1.52246,5.16022"
       style="fill:#cdcdd0;fill-opacity:1;fill-rule:nonzero;stroke:none;stroke-width:0.0474289"
       id="path43537" />
    <path
       d="m 55.268707,66.573106 c -0.317668,-0.93434 -0.535987,-1.92084 -0.630824,-2.95004 l -0.01228,-0.11882 c -0.194341,-2.3335 1.460777,-4.33496 3.542953,-4.33496 0.0061,0 0.01228,0 0.01535,0 l 0.649767,0.006 c -0.05189,0.3414 0.09978,0.5786 0.351041,0.71618 l -3.917603,6.6827"
       style="fill:#d7b3a6;fill-opacity:1;fill-rule:nonzero;stroke:none;stroke-width:0.0474289"
       id="path43539" />
    <path
       d="m 59.18631,59.890436 c -0.251138,-0.13754 -0.403172,-0.37471 -0.351071,-0.7162 h 0.768366 l -0.417387,0.7162"
       style="fill:#c3c8c8;fill-opacity:1;fill-rule:nonzero;stroke:none;stroke-width:0.0474289"
       id="path43541" />
    <path
       d="m 57.768177,70.794256 c -0.317637,-0.3414 -0.61185,-0.70665 -0.886935,-1.09082 l 6.085129,-10.37742 c 0.10899,-0.0427 0.222892,-0.0854 0.332128,-0.13293 l 1.266376,0.006 -2.30031,3.92233 c -1.380155,0.6498 -2.338257,2.05841 -2.338257,3.68522 0,0.0998 0.0061,0.19434 0.01228,0.28952 l -2.167495,3.6994"
       style="fill:#d7b3a6;fill-opacity:1;fill-rule:nonzero;stroke:none;stroke-width:0.0474289"
       id="path43543" />
    <path
       d="m 62.966371,59.326016 0.07583,-0.13293 h 0.256051 c -0.108991,0.0476 -0.222893,0.0903 -0.332129,0.13293"
       style="fill:#c3c8c8;fill-opacity:1;fill-rule:nonzero;stroke:none;stroke-width:0.0474289"
       id="path43545" />
    <path
       d="m 59.935642,67.094846 c -0.0061,-0.0949 -0.01228,-0.18973 -0.01228,-0.28951 0,-1.62681 0.958071,-3.03546 2.338257,-3.68519 l -2.32877,3.97452"
       style="fill:#49484e;fill-opacity:1;fill-rule:nonzero;stroke:none;stroke-width:0.0474289"
       id="path43547" />
    <path
       d="m 64.963104,74.066856 c -0.218288,0 -0.445847,-0.0123 -0.66874,-0.0215 -0.227805,-0.0184 -0.455334,-0.0427 -0.678227,-0.0758 -0.858475,-1.4418 -2.286033,-2.51844 -4.012471,-2.89312 l 1.100342,-1.87344 c 0.739875,1.01972 1.939843,1.67898 3.296266,1.67898 2.248148,0 4.07415,-1.82128 4.07415,-4.07415 0,-2.08682 -1.574618,-3.80853 -3.595084,-4.04566 l 2.082114,-3.55241 5.919096,0.0215 c 1.56989,0.0123 2.869454,1.42759 2.869454,3.18718 v 0.0335 c -0.02149,6.42659 -4.666996,11.61532 -10.3869,11.61532"
       style="fill:#d7b3a6;fill-opacity:1;fill-rule:nonzero;stroke:none;stroke-width:0.0474289"
       id="path43549" />
    <path
       d="m 63.616137,73.967256 c -1.669517,-0.24193 -3.220433,-0.9391 -4.548396,-1.97779 l 0.535925,-0.91536 c 1.726438,0.37471 3.153996,1.45132 4.012471,2.89315"
       style="fill:#c89798;fill-opacity:1;fill-rule:nonzero;stroke:none;stroke-width:0.0474289"
       id="path43551" />
    <path
       d="m 64.000274,70.879666 c -1.356423,0 -2.556391,-0.65925 -3.296266,-1.679 l 1.043421,-1.7833 c 0.10899,0.0427 0.227805,0.0663 0.355892,0.0663 0.52171,0 0.943794,-0.42212 0.943794,-0.94386 0,-0.29872 -0.137235,-0.56438 -0.35104,-0.73987 l 1.783296,-3.04019 c 2.020466,0.23702 3.595084,1.95882 3.595084,4.04572 0,2.25282 -1.826002,4.07409 -4.074119,4.07409"
       style="fill:#49484e;fill-opacity:1;fill-rule:nonzero;stroke:none;stroke-width:0.0474289"
       id="path43553" />
    <path
       d="m 62.103167,67.483746 c -0.128025,0 -0.24684,-0.0215 -0.355891,-0.0663 l 0.948614,-1.61729 c 0.213376,0.17561 0.351041,0.44109 0.351041,0.73988 0,0.52174 -0.422084,0.94385 -0.943794,0.94385"
       style="fill:#eff4f1;fill-opacity:1;fill-rule:nonzero;stroke:none;stroke-width:0.0474289"
       id="path43555" />
    <path
       d="m 56.881242,69.703436 c -0.673468,-0.93437 -1.218911,-1.98728 -1.612535,-3.13033 l 3.917603,-6.68267 c 0.194341,0.10899 0.445817,0.15658 0.711415,0.15658 0.08044,0 0.16149,-0.006 0.241928,-0.0154 0.972286,-0.10899 1.916111,-0.36035 2.826748,-0.70669 l -6.085129,10.37741 v 0"
       style="fill:#f1dbd2;fill-opacity:1;fill-rule:nonzero;stroke:none;stroke-width:0.0474289"
       id="path43557" />
    <path
       d="m 59.897725,60.046926 c -0.265568,0 -0.516982,-0.0476 -0.711415,-0.15658 l 0.417356,-0.71618 3.438568,0.0184 -0.07583,0.13293 c -0.910606,0.34625 -1.854462,0.59764 -2.826779,0.70669 -0.08044,0.0123 -0.16149,0.0154 -0.241927,0.0154"
       style="fill:#e7e6e5;fill-opacity:1;fill-rule:nonzero;stroke:none;stroke-width:0.0474289"
       id="path43559" />
    <path
       d="m 59.603666,71.074106 c -0.213375,-0.0427 -0.436329,-0.0804 -0.659253,-0.10439 -0.222893,-0.0215 -0.445847,-0.0335 -0.664012,-0.0335 -0.123113,0 -0.24684,0 -0.369984,0.0123 -0.04759,-0.0519 -0.09456,-0.0995 -0.142148,-0.15167 l 2.167465,-3.69947 c 0.05219,0.78261 0.332128,1.50824 0.768366,2.10588 l -1.100372,1.8734 m 2.660745,-7.9538 2.30034,-3.92236 1.996703,0.0123 -2.082114,3.55241 c -0.156578,-0.0153 -0.317638,-0.0215 -0.479036,-0.0215 -0.621306,0 -1.209393,0.13754 -1.735893,0.38416"
       style="fill:#f1dbd2;fill-opacity:1;fill-rule:nonzero;stroke:none;stroke-width:0.0474289"
       id="path43561" />
    <path
       d="m 59.067741,71.989466 c -0.407931,-0.31767 -0.796827,-0.66401 -1.157324,-1.04342 0.123113,-0.0123 0.24684,-0.0123 0.369984,-0.0123 0.218288,0 0.441088,0.0123 0.664012,0.0335 0.222893,0.0215 0.445847,0.0617 0.659253,0.10439 l -0.535925,0.91536 v 0"
       style="fill:#e9cbcb;fill-opacity:1;fill-rule:nonzero;stroke:none;stroke-width:0.0474289"
       id="path43563" />
    <path
       d="m 60.704008,69.200666 c -0.43633,-0.59757 -0.716174,-1.32327 -0.768366,-2.10582 l 2.32877,-3.97455 c 0.526469,-0.24684 1.114587,-0.38414 1.735862,-0.38414 0.16149,0 0.322489,0.0123 0.479066,0.0215 l -1.783327,3.04022 c -0.16149,-0.12803 -0.369984,-0.20846 -0.592846,-0.20846 -0.521741,0 -0.948615,0.42211 -0.948615,0.94855 0,0.39365 0.24684,0.73515 0.592877,0.87742 l -1.043421,1.78336"
       style="fill:#a19fa4;fill-opacity:1;fill-rule:nonzero;stroke:none;stroke-width:0.0474289"
       id="path43565" />
    <path
       d="m 61.747429,67.417366 c -0.346251,-0.14245 -0.592877,-0.48376 -0.592877,-0.87748 0,-0.52643 0.426874,-0.94852 0.948615,-0.94852 0.222893,0 0.431571,0.0804 0.592846,0.20846 l -0.948584,1.61733"
       style="fill:#ffffff;fill-opacity:1;fill-rule:nonzero;stroke:none;stroke-width:0.0474289"
       id="path43567" />
    <path
       d="m 58.185533,59.866706 c -0.830014,-0.006 -1.631538,0.38893 -2.191196,1.07664 -0.564386,0.68771 -0.829984,1.57465 -0.749393,2.49474 l 0.01228,0.1139 c 0.483794,5.25509 4.387182,9.46675 9.077849,9.79875 2.722455,0.18974 5.316793,-0.84898 7.299312,-2.93583 1.987246,-2.08211 3.087588,-4.91362 3.097074,-7.96326 v -0.0307 c 0,-1.37073 -1.005474,-2.49004 -2.248117,-2.49474 z m 6.744382,14.89259 c -0.222892,0 -0.450575,-0.0123 -0.673498,-0.0215 -5.288272,-0.37471 -9.684941,-5.1223 -10.235112,-11.04143 l -0.01228,-0.12802 v 0 c -0.108991,-1.29478 0.27969,-2.59434 1.067122,-3.55714 0.796796,-0.98177 1.930326,-1.53667 3.111321,-1.53197 l 14.295016,0.0617 c 1.92087,0.0123 3.481242,1.7501 3.481242,3.87965 v 0.0378 c -0.01535,3.43859 -1.252068,6.62584 -3.486001,8.97352 -2.072627,2.17698 -4.733403,3.3437 -7.550634,3.32949"
       style="fill:#182333;fill-opacity:1;fill-rule:nonzero;stroke:none;stroke-width:0.0474289"
       id="path43569" />
    <path
       d="m 82.231898,66.924086 c -0.317669,-0.93434 -0.535926,-1.92087 -0.630793,-2.95007 l -0.01228,-0.11882 c -0.194341,-2.3335 1.465567,-4.33496 3.54765,-4.33496 0.0061,0 0.01228,0 0.01535,0 l 1.418133,0.006 -4.339749,7.39885"
       style="fill:#d7b3a6;fill-opacity:1;fill-rule:nonzero;stroke:none;stroke-width:0.0474289"
       id="path43571" />
    <path
       d="m 84.731368,71.145236 c -0.313186,-0.3414 -0.61182,-0.70666 -0.886905,-1.09085 l 6.160992,-10.5102 1.522457,0.006 -6.796544,11.59629"
       style="fill:#d7b3a6;fill-opacity:1;fill-rule:nonzero;stroke:none;stroke-width:0.0474289"
       id="path43573" />
    <path
       d="m 91.931084,74.417836 c -0.2232,0 -0.445847,-0.0123 -0.67353,-0.0215 -1.925567,-0.13724 -3.718381,-0.87742 -5.226623,-2.05366 l 2.91213,-4.96099 c 0.275085,1.97776 1.977759,3.50021 4.031413,3.50021 2.248148,0 4.07415,-1.82127 4.07415,-4.07411 0,-2.24815 -1.826002,-4.06943 -4.07415,-4.06943 -0.516921,0 -1.01493,0.0949 -1.470264,0.27048 l 2.020466,-3.44808 5.923823,0.0215 c 1.569891,0.0123 2.864731,1.42756 2.864731,3.18718 v 0.0335 c -0.0153,3.59511 -1.47506,6.8013 -3.756364,8.93082 -0.142455,-0.0215 -0.284603,-0.0427 -0.431633,-0.0617 -0.222892,-0.0215 -0.445816,-0.0335 -0.66395,-0.0335 -2.120092,0 -4.036203,1.08137 -5.155518,2.76983 -0.123113,0.006 -0.251138,0.0123 -0.374681,0.0123"
       style="fill:#d7b3a6;fill-opacity:1;fill-rule:nonzero;stroke:none;stroke-width:0.0474289"
       id="path43575" />
    <path
       d="m 92.305765,74.408346 c 1.119315,-1.68846 3.035426,-2.76983 5.155518,-2.76983 0.218288,0 0.441027,0.0123 0.66395,0.0335 0.147061,0.0184 0.289516,0.0378 0.431633,0.0617 -1.712161,1.59362 -3.879687,2.58012 -6.251101,2.67499"
       style="fill:#c89798;fill-opacity:1;fill-rule:nonzero;stroke:none;stroke-width:0.0474289"
       id="path43577" />
    <path
       d="m 92.974474,70.879666 c -2.053654,0 -3.756297,-1.52248 -4.031413,-3.50027 l 2.561149,-4.37291 c 0.455334,-0.17561 0.953343,-0.27017 1.470264,-0.27017 2.248148,0 4.07415,1.82127 4.07415,4.06936 0,2.25287 -1.826002,4.07415 -4.07415,4.07415 m -1.897107,-5.28831 c -0.521741,0 -0.948615,0.42209 -0.948615,0.94853 0,0.52174 0.426874,0.94385 0.948615,0.94385 0.521711,0 0.948554,-0.42211 0.948554,-0.94385 0,-0.52644 -0.426843,-0.94853 -0.948554,-0.94853"
       style="fill:#49484e;fill-opacity:1;fill-rule:nonzero;stroke:none;stroke-width:0.0474289"
       id="path43579" />
    <path
       d="m 91.077367,67.483746 c -0.521741,0 -0.948615,-0.42211 -0.948615,-0.94386 0,-0.52643 0.426874,-0.94852 0.948615,-0.94852 0.521711,0 0.948554,0.42209 0.948554,0.94852 0,0.52175 -0.426843,0.94386 -0.948554,0.94386"
       style="fill:#eff4f1;fill-opacity:1;fill-rule:nonzero;stroke:none;stroke-width:0.0474289"
       id="path43581" />
    <path
       d="m 83.844463,70.054386 c -0.673468,-0.93437 -1.218911,-1.99204 -1.612565,-3.1303 l 4.339718,-7.39884 3.433839,0.0184 -6.160992,10.51023 v 0"
       style="fill:#f1dbd2;fill-opacity:1;fill-rule:nonzero;stroke:none;stroke-width:0.0474289"
       id="path43583" />
    <path
       d="m 86.030931,72.340446 c -0.460061,-0.36034 -0.896391,-0.75885 -1.299563,-1.19521 l 6.796544,-11.59629 1.996764,0.0123 -2.020466,3.44802 c -1.522487,0.59288 -2.603855,2.06793 -2.603855,3.7991 0,0.19434 0.01535,0.38889 0.04267,0.57384 l -2.91216,4.96105 v 0"
       style="fill:#f1dbd2;fill-opacity:1;fill-rule:nonzero;stroke:none;stroke-width:0.0474289"
       id="path43585" />
    <path
       d="m 88.943061,67.379396 c -0.0307,-0.18483 -0.04268,-0.37941 -0.04268,-0.57388 0,-1.73116 1.081399,-3.20615 2.603856,-3.79903 l -2.56118,4.37291"
       style="fill:#a19fa4;fill-opacity:1;fill-rule:nonzero;stroke:none;stroke-width:0.0474289"
       id="path43587" />
    <path
       d="m 85.148755,60.212956 c -0.830015,0 -1.631539,0.39365 -2.191197,1.08137 -0.559657,0.68768 -0.825287,1.57462 -0.749393,2.49474 l 0.01228,0.1139 c 0.483733,5.25512 4.387152,9.46681 9.082608,9.79878 2.722363,0.18974 5.312004,-0.84895 7.29925,-2.93583 1.982517,-2.08687 3.082857,-4.91362 3.092347,-7.96326 v -0.0307 c 0.006,-1.37073 -1.00547,-2.49001 -2.248148,-2.49477 z m 6.744351,14.89735 c -0.222893,0 -0.445786,-0.0123 -0.673468,-0.0215 -5.288272,-0.37468 -9.684941,-5.1223 -10.230384,-11.0414 l -0.01535,-0.12802 v 0 0 c -0.108991,-1.29481 0.27969,-2.59437 1.067122,-3.56193 0.796827,-0.97701 1.930388,-1.53191 3.111351,-1.52721 l 14.295016,0.0617 c 1.920867,0.0123 3.486007,1.75014 3.481247,3.87965 v 0.0378 c -0.0123,3.43859 -1.24737,6.62581 -3.486005,8.97352 -2.072658,2.17695 -4.728645,3.34373 -7.550634,3.32952"
       style="fill:#182333;fill-opacity:1;fill-rule:nonzero;stroke:none;stroke-width:0.0474289"
       id="path43589" />
    <path
       d="m 81.112582,64.614326 c -1.261616,-1.00075 -2.532689,-1.31378 -3.789578,-0.92961 -0.915334,0.27969 -1.47975,0.83474 -1.489237,0.8395 l -0.967527,-1.19994 c 1.081337,-1.1004 3.955519,-2.5185 7.081085,-0.0335 l -0.834743,1.3232"
       style="fill:#182333;fill-opacity:1;fill-rule:nonzero;stroke:none;stroke-width:0.0474289"
       id="path43591" />
    <path
       d="m 45.061995,67.080636 c -0.213376,0 -0.422084,-0.12311 -0.535926,-0.35107 -0.165788,-0.33213 -0.06171,-0.75412 0.232411,-0.94383 l 5.193434,-3.3153 c 0.763608,-0.48376 1.63157,-0.73984 2.508988,-0.73508 l 2.029952,0.006 c 0.341401,0.006 0.616578,0.31766 0.616578,0.6972 -0.0061,0.38413 -0.279691,0.6972 -0.621337,0.69244 l -2.029921,-0.0123 c -0.664012,0 -1.318507,0.19004 -1.89241,0.55965 l -5.193465,3.31052 c -0.09487,0.0617 -0.203858,0.0949 -0.308396,0.0903"
       style="fill:#182333;fill-opacity:1;fill-rule:nonzero;stroke:none;stroke-width:0.0474289"
       id="path43593" />
    <path
       d="m 112.37761,67.379396 c 0.21337,0.006 0.42208,-0.12312 0.53592,-0.34623 0.1707,-0.33212 0.0712,-0.75412 -0.22289,-0.94852 l -5.16973,-3.358 c -0.75885,-0.49326 -1.62682,-0.75409 -2.50423,-0.75885 l -2.02999,-0.0123 c -0.3414,-0.006 -0.62127,0.30839 -0.62127,0.69247 0,0.38417 0.27508,0.69244 0.61651,0.6972 l 2.02999,0.0123 c 0.66398,0 1.31381,0.19925 1.88768,0.5739 l 5.1697,3.35795 c 0.0946,0.0617 0.20417,0.0903 0.3084,0.0903"
       style="fill:#182333;fill-opacity:1;fill-rule:nonzero;stroke:none;stroke-width:0.0474289"
       id="path43595" />
    <path
       d="m 83.251617,44.006526 c 4.135768,4.1785 10.666713,6.48351 16.059339,4.15001 1.508274,-0.65452 3.035424,-1.98248 2.826784,-3.60933 0.80628,1.97307 2.58488,3.51926 4.64799,4.05042 2.06314,0.5312 4.36348,0.0335 6.02345,-1.30429 -1.54143,-3.69944 -3.20619,-7.37517 -5.52069,-10.64298 -2.31455,-3.26787 -5.33573,-6.12777 -9.016196,-7.70718 -3.225162,-1.38964 -6.791816,-1.73589 -10.268331,-2.24812 -2.423607,-0.36031 -4.870915,-0.80628 -7.313496,-0.59284 -1.522487,0.13293 -4.396669,0.5739 -5.084352,2.21492 -0.573903,1.37067 0.616548,3.48601 1.090855,4.72865 1.527185,3.99347 3.514431,7.89685 6.554647,10.96074"
       style="fill:#cdcdd0;fill-opacity:1;fill-rule:nonzero;stroke:none;stroke-width:0.0474289"
       id="path43597" />
    <path
       d="m 98.504673,24.114936 c 2.480527,1.65054 4.704947,3.79903 5.995017,6.48827 0.18483,0.39362 0.36035,0.82998 0.26557,1.25683 -0.0903,0.42687 -0.43157,0.75888 -0.78731,1.01499 -0.81577,0.58812 -1.78805,0.92961 -2.64177,1.45605 -0.85844,0.53122 -1.641056,1.34699 -1.71692,2.35244 -0.08044,1.1051 0.71614,2.12485 0.68768,3.23465 -0.0335,1.32329 -1.204662,2.31455 -2.338192,3.00229 -1.204696,0.72563 -2.546935,1.328 -3.955581,1.31845 -1.825971,-0.0184 -3.471756,-1.06236 -4.932594,-2.16274 -1.290047,-0.97228 -2.551663,-2.04889 -3.376889,-3.44326 -0.431632,-0.72569 -0.711446,-1.72171 -0.16149,-2.36199 0.52647,-0.61185 1.479782,-0.5312 2.276608,-0.39838 0.720872,0.11881 1.437076,0.23701 2.158009,0.35589 0.407869,0.0663 0.848957,0.12802 1.209393,-0.0663 0.626065,-0.33658 0.664012,-1.21415 0.550202,-1.91138 -0.118815,-0.73039 -0.313217,-1.45602 -0.298726,-2.19592 0.01842,-0.73991 0.284603,-1.52246 0.90115,-1.93512 1.095614,-0.73512 2.855209,-0.0663 3.718412,-1.06712 0.559658,-0.64504 0.365164,-1.69322 -0.175612,-2.35723 -0.540685,-0.66398 -1.337481,-1.05291 -2.082115,-1.47502 -0.858444,-0.48377 -1.678972,-1.03397 -2.447308,-1.64576 -1.517759,-1.19997 -2.18174,-3.98401 0.474277,-2.9074 2.309765,0.92961 4.600558,2.07266 6.677944,3.44805"
       style="fill:#e1dedc;fill-opacity:1;fill-rule:nonzero;stroke:none;stroke-width:0.0474289"
       id="path43599" />
    <circle
       style="fill:none;fill-opacity:1;stroke:#ffcc00;stroke-width:2.27805;stroke-linecap:square;stroke-dasharray:none"
       id="circle43601"
       cx="80.542366"
       cy="81.80085"
       r="73.516548" />
  </g>
</svg>
