<?xml version="1.0" encoding="UTF-8" standalone="no"?>
<!-- Created with Inkscape (http://www.inkscape.org/) -->

<svg
   width="50mm"
   height="50mm"
   viewBox="0 0 50 50"
   version="1.1"
   id="svg5"
   inkscape:version="1.2.1 (9c6d41e4, 2022-07-14)"
   sodipodi:docname="settings.svg"
   xml:space="preserve"
   inkscape:export-filename="settings.png"
   inkscape:export-xdpi="96"
   inkscape:export-ydpi="96"
   xmlns:inkscape="http://www.inkscape.org/namespaces/inkscape"
   xmlns:sodipodi="http://sodipodi.sourceforge.net/DTD/sodipodi-0.dtd"
   xmlns="http://www.w3.org/2000/svg"
   xmlns:svg="http://www.w3.org/2000/svg"><sodipodi:namedview
     id="namedview7"
     pagecolor="#ffffff"
     bordercolor="#000000"
     borderopacity="0.25"
     inkscape:showpageshadow="2"
     inkscape:pageopacity="0.0"
     inkscape:pagecheckerboard="0"
     inkscape:deskcolor="#d1d1d1"
     inkscape:document-units="mm"
     showgrid="false"
     inkscape:zoom="2.2869864"
     inkscape:cx="106.90925"
     inkscape:cy="106.03474"
     inkscape:window-width="1309"
     inkscape:window-height="717"
     inkscape:window-x="265"
     inkscape:window-y="203"
     inkscape:window-maximized="0"
     inkscape:current-layer="layer1" /><defs
     id="defs2" /><g
     inkscape:label="Layer 1"
     inkscape:groupmode="layer"
     id="layer1"><path
       id="path4869"
       style="fill:#ffffff;stroke:none;stroke-width:0.742;stroke-linecap:square"
       d="M 20.593058 4.5118693 L 19.551778 10.296529 L 17.353463 11.337809 L 12.725838 7.8672201 L 6.8259399 13.535608 L 10.412284 17.932239 L 9.7182699 20.593058 L 3.5863444 21.518583 L 3.354834 28.807027 L 9.1394938 30.195056 L 10.52804 33.203141 L 7.1726888 37.368262 L 12.957349 42.805656 L 17.237708 39.450822 L 19.783289 40.491585 L 20.477303 46.276245 L 28.344006 46.392 L 29.269531 40.60734 L 31.699357 39.56606 L 36.674247 42.805656 L 41.648621 37.252507 L 38.872046 32.740637 L 39.797571 29.964062 L 45.466475 29.269531 L 45.466475 21.518583 L 40.029081 20.824569 L 38.640535 18.163232 L 41.648621 13.420369 L 36.442737 8.0982137 L 31.930868 11.337809 L 29.501042 10.412284 L 28.228768 4.5118693 L 20.593058 4.5118693 z M 24.468791 18.510498 A 6.9992943 6.9414492 0 0 1 31.467847 25.452193 A 6.9992943 6.9414492 0 0 1 24.468791 32.393372 A 6.9992943 6.9414492 0 0 1 17.469218 25.452193 A 6.9992943 6.9414492 0 0 1 24.468791 18.510498 z " /></g></svg>
